<?xml version="1.0" encoding="UTF-8" standalone="no"?><!DOCTYPE svg PUBLIC "-//W3C//DTD SVG 1.1//EN" "http://www.w3.org/Graphics/SVG/1.1/DTD/svg11.dtd"><svg width="100%" height="100%" viewBox="0 0 460 460" version="1.1" xmlns="http://www.w3.org/2000/svg" xmlns:xlink="http://www.w3.org/1999/xlink" xml:space="preserve" xmlns:serif="http://www.serif.com/" style="fill-rule:evenodd;clip-rule:evenodd;stroke-linejoin:round;stroke-miterlimit:2;"><path d="M0,460l0,-460l460,0l0,230l0,230l-230,0l-230,0Zm47.024,-238.088c-3.383,0.067 -6.321,2.416 -7.132,5.701c-0.145,0.588 -0.218,1.191 -0.218,1.796c-0,3.439 2.366,6.459 5.705,7.282l15.749,3.885c-7.243,6.702 -13.004,13.437 -17.107,20.241c-6.002,9.955 -8.557,20.497 -5.916,30.353c3.122,11.652 12.723,20.189 25.336,25.882c12.613,5.694 28.72,9.009 47.565,10.357c37.69,2.696 86.393,-2.66 138.06,-16.505c41.358,-11.082 80.27,-26.557 111.009,-44.266c3.565,-2.053 4.809,-6.677 2.755,-10.242c-1.337,-2.321 -3.82,-3.756 -6.498,-3.756c-1.315,0 -2.607,0.346 -3.746,1.002c-29.26,16.857 -67.151,31.988 -107.402,42.774c-50.312,13.481 -97.769,18.558 -133.107,16.031c-17.669,-1.264 -32.294,-4.475 -42.466,-9.066c-10.172,-4.592 -15.411,-10.098 -17.017,-16.094c-1.339,-4.996 -0.338,-11.076 4.273,-18.724c2.93,-4.86 7.322,-10.178 13.109,-15.716l-0.075,21.776c-0,0.009 -0,0.019 -0,0.028c-0,4.104 3.369,7.485 7.474,7.5c0.008,-0 0.017,-0 0.026,-0c4.105,-0 7.486,-3.37 7.5,-7.475l0.129,-37.752c0.012,-3.449 -2.356,-6.482 -5.704,-7.308l-30.355,-7.487c-0.636,-0.157 -1.291,-0.23 -1.947,-0.217Zm338.662,55.587c-0.97,-0 -1.835,0.612 -2.158,1.527l-1.883,5.794c-1.164,3.545 -3.919,6.343 -7.446,7.561l-5.794,1.883c-0.915,0.323 -1.526,1.188 -1.526,2.159c-0,0.97 0.611,1.835 1.526,2.158l5.794,1.883c3.578,1.194 6.382,4.007 7.561,7.59l1.884,5.795c0.323,0.915 1.187,1.526 2.158,1.526c0.97,0 1.835,-0.611 2.157,-1.526l1.884,-5.795c1.188,-3.572 3.99,-6.375 7.562,-7.562l5.793,-1.882c0.915,-0.323 1.527,-1.187 1.527,-2.158c-0,-0.97 -0.612,-1.836 -1.527,-2.159l-0.115,-0.029l-5.795,-1.883c-3.572,-1.187 -6.373,-3.99 -7.56,-7.561l-1.884,-5.794c-0.323,-0.915 -1.188,-1.527 -2.158,-1.527Zm-28.151,-124.632c-4.089,-0.451 -7.825,2.542 -8.277,6.631c-0.03,0.273 -0.045,0.548 -0.045,0.823c0,3.805 2.896,7.038 6.678,7.455c15.946,1.76 28.582,5.237 37.198,9.691c8.617,4.455 12.908,9.487 14.318,14.748c1.246,4.653 0.474,10.206 -3.386,17.187c-1.416,2.563 -3.259,5.271 -5.51,8.082l3.196,-12.147c1.047,-3.978 -1.365,-8.113 -5.344,-9.161c-0.623,-0.164 -1.265,-0.247 -1.909,-0.247c-3.396,0 -6.389,2.307 -7.253,5.591l-9.599,36.476c-0.947,3.598 0.919,7.384 4.349,8.824l28.488,11.959c0.919,0.386 1.906,0.585 2.903,0.585c3.015,0 5.749,-1.817 6.916,-4.597c1.592,-3.794 -0.22,-8.225 -4.014,-9.817l-16.425,-6.897c7.516,-7.084 13.349,-14.193 17.329,-21.392c5.15,-9.317 7.206,-19.147 4.746,-28.328c-2.781,-10.377 -10.894,-18.492 -21.915,-24.19c-11.022,-5.698 -25.256,-9.379 -42.444,-11.276Zm-127.582,-68.775c-12.57,0 -23.532,9.338 -30.961,24.119l-0.006,0.013l-24.557,49.112c-0.009,0.018 -0.017,0.036 -0.026,0.054c-1.865,3.808 -10.066,9.855 -14.194,10.556l-44.48,7.39l-0.005,0.001c-15.88,2.647 -27.779,10.333 -31.548,22.137c-3.77,11.805 1.462,24.961 12.827,36.327l34.603,34.601c3.419,3.419 6.315,13.514 5.24,18.31l-1.587,6.856c-0.128,0.554 -0.193,1.121 -0.193,1.69c0,3.479 2.421,6.523 5.811,7.307c0.555,0.128 1.122,0.193 1.691,0.193c3.479,0 6.524,-2.421 7.307,-5.811l1.596,-6.904c0.004,-0.016 0.008,-0.033 0.011,-0.049c2.553,-11.389 -0.968,-23.896 -9.269,-32.198l-34.601,-34.601c-9.005,-9.004 -10.679,-16.358 -9.147,-21.156c1.532,-4.799 7.14,-9.809 19.72,-11.907l44.508,-7.394c0.009,-0.001 0.018,-0.002 0.028,-0.003c10.661,-1.81 20.321,-8.879 25.153,-18.744l24.521,-49.043l0.006,-0.011l0.001,-0.004c5.963,-11.855 12.578,-15.842 17.551,-15.842c4.975,-0 11.542,3.967 17.44,15.826l0.007,0.016l24.529,49.056c4.832,9.866 14.553,16.955 25.316,18.749l0.003,-0l44.507,7.394c12.582,2.098 18.238,7.126 19.779,11.92c1.541,4.794 -0.119,12.121 -9.185,21.126c-0.006,0.006 -0.013,0.011 -0.019,0.017l-3.858,3.859c-1.407,1.406 -2.198,3.315 -2.198,5.304c0,1.989 0.791,3.898 2.198,5.304c1.406,1.406 3.315,2.197 5.303,2.197c1.989,-0 3.898,-0.791 5.304,-2.197l3.842,-3.842l0.017,-0.019c11.431,-11.362 16.67,-24.537 12.876,-36.34c-3.795,-11.809 -15.718,-19.477 -31.596,-22.124l-0.005,-0.001l-44.507,-7.395c-4.307,-0.72 -12.442,-6.744 -14.306,-10.551c-0.009,-0.018 -0.018,-0.036 -0.026,-0.054l-24.55,-49.099l-0.007,-0.013c-7.356,-14.781 -18.299,-24.132 -30.864,-24.132Zm84.09,-18.845c-1.614,0 -3.054,1.019 -3.591,2.542l-3.134,9.64c-1.935,5.899 -6.519,10.553 -12.388,12.58l-9.64,3.133c-1.523,0.537 -2.54,1.977 -2.54,3.592c0,1.615 1.017,3.053 2.54,3.59l9.64,3.134c5.954,1.985 10.619,6.667 12.582,12.628l3.133,9.64c0.537,1.523 1.976,2.542 3.59,2.542c1.615,-0 3.055,-1.019 3.592,-2.542l3.132,-9.64c1.975,-5.943 6.639,-10.605 12.582,-12.58l9.64,-3.133c1.522,-0.538 2.541,-1.978 2.541,-3.592c0,-1.615 -1.019,-3.053 -2.541,-3.591l-0.194,-0.048l-9.64,-3.133c-5.942,-1.976 -10.604,-6.638 -12.58,-12.58l-3.133,-9.64c-0.537,-1.523 -1.976,-2.542 -3.591,-2.542Zm6.961,232.975c-0.971,-0.162 -1.964,-0.131 -2.923,0.09c-3.39,0.784 -5.811,3.829 -5.811,7.308c-0,0.569 0.065,1.136 0.193,1.691l5.913,25.566c1.787,7.756 1.97,13.987 1.169,18.321c-0.801,4.335 -2.351,6.594 -4.192,7.936c-1.841,1.342 -4.484,2.133 -8.877,1.576c-4.393,-0.556 -10.294,-2.624 -17.162,-6.681l-41.707,-24.69l-0.003,-0.001c-10.643,-6.305 -24.505,-6.262 -35.218,-0.029c-0.016,0.009 -0.032,0.019 -0.048,0.029l-41.719,24.696l-0.006,0.003c-11.491,6.819 -19.904,7.627 -23.969,6.114c-4.065,-1.513 -6.689,-5.014 -6.703,-14.536c-0.007,-4.113 -3.396,-7.493 -7.509,-7.488c-4.111,0.005 -7.491,3.389 -7.491,7.5l-0,0.012c0.019,13.22 5.829,24.609 16.471,28.57c10.642,3.961 23.211,0.824 36.855,-7.273l-0.006,0.006l41.674,-24.671c4.636,-2.693 15.602,-2.648 20.025,-0.026l0.002,0.001l41.717,24.696l0.006,0.001c8.131,4.803 15.733,7.74 22.907,8.649c7.175,0.908 14.165,-0.376 19.597,-4.336c5.432,-3.96 8.793,-10.227 10.106,-17.332c1.313,-7.106 0.816,-15.229 -1.302,-24.422l-0.003,-0.006l-5.912,-25.566c-0.682,-2.95 -3.087,-5.21 -6.074,-5.708Zm-159.039,-246.211c-1.336,-0 -2.526,0.842 -2.971,2.102l-2.593,7.976c-1.601,4.881 -5.392,8.731 -10.248,10.408l-7.974,2.592c-1.26,0.445 -2.104,1.635 -2.104,2.971c0,1.336 0.844,2.526 2.104,2.971l7.974,2.591c4.926,1.643 8.784,5.517 10.408,10.449l2.593,7.974c0.444,1.26 1.635,2.102 2.971,2.102c1.335,0 2.526,-0.842 2.97,-2.102l2.592,-7.974c1.634,-4.916 5.492,-8.775 10.409,-10.409l7.974,-2.592c1.26,-0.444 2.102,-1.635 2.102,-2.97c0,-1.336 -0.842,-2.527 -2.102,-2.971l-0.159,-0.04l-7.975,-2.592c-4.916,-1.635 -8.773,-5.492 -10.408,-10.408l-2.592,-7.976c-0.445,-1.26 -1.635,-2.102 -2.971,-2.102Zm-75.138,55.352c-0.932,-0 -1.763,0.587 -2.073,1.466l-1.809,5.565c-1.117,3.405 -3.762,6.092 -7.15,7.261l-5.565,1.809c-0.878,0.31 -1.466,1.141 -1.466,2.073c0,0.932 0.588,1.763 1.466,2.073l5.565,1.807c3.437,1.146 6.129,3.849 7.262,7.29l1.809,5.564c0.31,0.879 1.14,1.467 2.072,1.467c0.932,-0 1.763,-0.588 2.073,-1.467l1.808,-5.564c1.14,-3.43 3.831,-6.121 7.261,-7.262l5.565,-1.807c0.879,-0.31 1.466,-1.141 1.466,-2.073c0,-0.932 -0.587,-1.763 -1.466,-2.073l-0.111,-0.028l-5.565,-1.809c-3.43,-1.14 -6.121,-3.831 -7.261,-7.261l-1.808,-5.565c-0.31,-0.879 -1.141,-1.466 -2.073,-1.466Zm275.785,227.886c-0.74,-0 -1.401,0.466 -1.647,1.164l-1.435,4.418c-0.887,2.703 -2.987,4.836 -5.676,5.764l-4.417,1.436c-0.698,0.246 -1.165,0.905 -1.165,1.645c0,0.74 0.467,1.399 1.165,1.645l4.417,1.435c2.727,0.91 4.866,3.057 5.765,5.788l1.436,4.416c0.246,0.698 0.905,1.165 1.645,1.165c0.74,0 1.399,-0.467 1.645,-1.165l1.435,-4.416c0.905,-2.723 3.042,-4.859 5.764,-5.764l4.418,-1.436c0.698,-0.246 1.165,-0.906 1.165,-1.646c-0,-0.74 -0.467,-1.399 -1.165,-1.645l-0.087,-0.022l-4.418,-1.436c-2.723,-0.905 -4.859,-3.041 -5.765,-5.764l-1.435,-4.418c-0.246,-0.698 -0.905,-1.164 -1.645,-1.164Zm-221.379,-216.206c-0.865,0 -1.637,0.545 -1.925,1.361l-1.679,5.167c-1.037,3.161 -3.492,5.655 -6.637,6.741l-5.166,1.679c-0.816,0.288 -1.363,1.059 -1.363,1.925c0,0.865 0.547,1.636 1.363,1.924l5.166,1.679c3.19,1.064 5.69,3.572 6.741,6.766l1.679,5.167c0.288,0.816 1.06,1.362 1.925,1.362c0.865,-0 1.635,-0.546 1.923,-1.362l1.679,-5.167c1.059,-3.184 3.558,-5.682 6.743,-6.741l5.165,-1.679c0.816,-0.288 1.362,-1.058 1.362,-1.923c-0,-0.865 -0.546,-1.637 -1.362,-1.925l-0.103,-0.026l-5.166,-1.679c-3.185,-1.059 -5.683,-3.557 -6.742,-6.741l-1.678,-5.167c-0.288,-0.816 -1.06,-1.361 -1.925,-1.361Zm84.936,240.122c-1.115,0 -2.108,0.704 -2.479,1.755l-2.163,6.655c-1.336,4.072 -4.5,7.286 -8.552,8.685l-6.655,2.162c-1.051,0.371 -1.753,1.364 -1.753,2.478c-0,1.115 0.702,2.11 1.753,2.48l6.655,2.162c4.11,1.371 7.33,4.604 8.685,8.719l2.164,6.655c0.371,1.051 1.364,1.755 2.478,1.755c1.115,-0 2.109,-0.704 2.48,-1.755l2.162,-6.655c1.364,-4.102 4.583,-7.321 8.685,-8.685l6.655,-2.162c1.051,-0.371 1.755,-1.365 1.755,-2.48c0,-1.115 -0.704,-2.108 -1.755,-2.478l-0.133,-0.034l-6.655,-2.162c-4.102,-1.364 -7.321,-4.583 -8.685,-8.685l-2.162,-6.655c-0.371,-1.051 -1.365,-1.755 -2.48,-1.755Zm-45.719,30.699c-0.817,-0 -1.545,0.515 -1.817,1.284l-1.583,4.875c-0.979,2.983 -3.296,5.336 -6.264,6.361l-4.875,1.585c-0.77,0.271 -1.285,0.998 -1.285,1.815c0,0.816 0.515,1.544 1.285,1.816l4.875,1.584c3.01,1.003 5.368,3.372 6.36,6.386l1.585,4.874c0.272,0.77 0.999,1.285 1.815,1.285c0.817,-0 1.545,-0.515 1.817,-1.285l1.583,-4.874c0.999,-3.004 3.357,-5.363 6.362,-6.361l4.874,-1.584c0.77,-0.272 1.286,-1 1.286,-1.816c-0,-0.817 -0.516,-1.544 -1.286,-1.815l-0.097,-0.025l-4.875,-1.585c-3.005,-0.999 -5.362,-3.356 -6.36,-6.361l-1.585,-4.875c-0.272,-0.769 -0.999,-1.284 -1.815,-1.284Zm100.564,-0.651c-0.759,0 -1.436,0.48 -1.689,1.196l-1.472,4.53c-0.91,2.773 -3.064,4.96 -5.823,5.913l-4.53,1.473c-0.716,0.253 -1.194,0.929 -1.194,1.688c-0,0.759 0.478,1.435 1.194,1.687l4.53,1.472c2.798,0.933 4.991,3.134 5.914,5.936l1.472,4.532c0.253,0.716 0.929,1.194 1.688,1.194c0.758,-0 1.436,-0.478 1.688,-1.194l1.473,-4.532c0.928,-2.793 3.119,-4.984 5.912,-5.912l4.532,-1.472c0.716,-0.253 1.194,-0.93 1.194,-1.689c-0,-0.759 -0.478,-1.435 -1.194,-1.688l-0.091,-0.022l-4.531,-1.473c-2.793,-0.929 -4.985,-3.12 -5.913,-5.913l-1.472,-4.53c-0.253,-0.716 -0.929,-1.196 -1.688,-1.196Zm-183.798,-42.042c-0.605,-0 -1.145,0.381 -1.346,0.952l-1.174,3.612c-0.725,2.211 -2.443,3.956 -4.642,4.716l-3.612,1.173c-0.571,0.201 -0.952,0.741 -0.952,1.346c-0,0.605 0.381,1.144 0.952,1.345l3.612,1.175c2.231,0.744 3.979,2.498 4.714,4.731l1.173,3.613c0.202,0.57 0.742,0.952 1.347,0.952c0.605,-0 1.144,-0.382 1.346,-0.952l1.173,-3.613c0.74,-2.227 2.487,-3.973 4.714,-4.714l3.614,-1.173c0.57,-0.201 0.952,-0.741 0.952,-1.346c-0,-0.605 -0.382,-1.145 -0.952,-1.346l-0.073,-0.018l-3.613,-1.173c-2.227,-0.741 -3.973,-2.489 -4.714,-4.716l-1.174,-3.612c-0.202,-0.571 -0.74,-0.952 -1.345,-0.952Z" style="fill:#7ea7cf;"/></svg>