<?xml version="1.0" encoding="UTF-8" standalone="no"?><!DOCTYPE svg PUBLIC "-//W3C//DTD SVG 1.1//EN" "http://www.w3.org/Graphics/SVG/1.1/DTD/svg11.dtd"><svg width="100%" height="100%" viewBox="0 0 79 79" version="1.1" xmlns="http://www.w3.org/2000/svg" xmlns:xlink="http://www.w3.org/1999/xlink" xml:space="preserve" xmlns:serif="http://www.serif.com/" style="fill-rule:evenodd;clip-rule:evenodd;stroke-linejoin:round;stroke-miterlimit:2;"><g id="logo-symbol-icon"><path d="M39.5,0c-21.669,0 -39.5,17.831 -39.5,39.5c-0,-0 -0,0 -0,0c-0,21.669 17.831,39.5 39.5,39.5c-0,0 0,0 0,0c21.669,0 39.5,-17.831 39.5,-39.5c0,0 0,-0 0,-0c0,-21.669 -17.831,-39.5 -39.5,-39.5c0,-0 -0,-0 -0,0Zm-11.684,8.932c0.229,0 0.434,0.145 0.51,0.361l0.445,1.37c0.281,0.844 0.943,1.507 1.788,1.787l1.369,0.446l0.028,0.007c0.216,0.076 0.361,0.28 0.361,0.51c-0,0.229 -0.145,0.434 -0.361,0.51l-1.37,0.445c-0.844,0.281 -1.507,0.943 -1.788,1.788l-0.445,1.369c-0.076,0.217 -0.28,0.361 -0.51,0.361c-0.229,0 -0.434,-0.144 -0.51,-0.361l-0.445,-1.369c-0.279,-0.847 -0.942,-1.513 -1.788,-1.795l-1.369,-0.445c-0.217,-0.076 -0.362,-0.281 -0.362,-0.51c0,-0.229 0.145,-0.434 0.362,-0.51l1.369,-0.446c0.834,-0.287 1.485,-0.949 1.76,-1.787l0.446,-1.37c0.076,-0.216 0.28,-0.361 0.51,-0.361Zm26.118,2.273c0.277,0 0.524,0.175 0.616,0.437l0.538,1.656c0.34,1.02 1.14,1.821 2.161,2.16l1.655,0.538l0.034,0.008c0.261,0.093 0.436,0.34 0.436,0.617c0,0.277 -0.175,0.525 -0.436,0.617l-1.656,0.538c-1.021,0.339 -1.822,1.14 -2.161,2.16l-0.538,1.656c-0.092,0.262 -0.339,0.437 -0.616,0.437c-0.278,-0 -0.525,-0.175 -0.617,-0.437l-0.538,-1.656c-0.337,-1.023 -1.139,-1.827 -2.161,-2.168l-1.656,-0.538c-0.261,-0.093 -0.436,-0.34 -0.436,-0.617c0,-0.277 0.175,-0.525 0.436,-0.617l1.656,-0.538c1.008,-0.348 1.795,-1.147 2.128,-2.16l0.538,-1.656c0.092,-0.262 0.339,-0.437 0.617,-0.437Zm-14.442,3.237c2.158,-0 4.037,1.606 5.3,4.144l0.002,0.003l4.216,8.432c0.001,0.003 0.003,0.006 0.004,0.009c0.321,0.654 1.718,1.688 2.457,1.812l7.644,1.27c0,0 0,0 0.001,0c2.727,0.455 4.774,1.772 5.426,3.8c0.652,2.027 -0.248,4.29 -2.211,6.241l-0.003,0.003l-0.66,0.66c-0.242,0.241 -0.569,0.377 -0.911,0.377c-0.341,0 -0.669,-0.136 -0.911,-0.377c-0.241,-0.242 -0.377,-0.569 -0.377,-0.911c-0,-0.342 0.136,-0.67 0.377,-0.911l0.663,-0.663c0.001,-0.001 0.002,-0.002 0.003,-0.003c1.557,-1.546 1.842,-2.805 1.577,-3.628c-0.264,-0.823 -1.235,-1.687 -3.396,-2.047l-7.644,-1.27c-0,0 -0,0 -0,0c-1.849,-0.308 -3.518,-1.525 -4.348,-3.22l-4.213,-8.424c-0,-0.001 -0.001,-0.002 -0.001,-0.003c-1.013,-2.037 -2.141,-2.718 -2.995,-2.718c-0.854,-0 -1.99,0.684 -3.014,2.721l-0,0l-0.001,0.002l-4.212,8.423c-0.83,1.694 -2.489,2.908 -4.319,3.219c-0.002,-0 -0.004,0 -0.005,0l-7.644,1.27c-2.16,0.36 -3.124,1.221 -3.387,2.045c-0.263,0.824 0.025,2.087 1.571,3.633l5.943,5.943c1.425,1.425 2.03,3.573 1.591,5.529c-0,0.003 -0.001,0.006 -0.002,0.009l-0.274,1.185c-0.134,0.583 -0.657,0.998 -1.254,0.998c-0.098,0 -0.196,-0.011 -0.291,-0.033c-0.582,-0.134 -0.998,-0.657 -0.998,-1.255c0,-0.097 0.011,-0.195 0.033,-0.29l0.273,-1.177c0.184,-0.824 -0.313,-2.558 -0.9,-3.145l-5.943,-5.942c-1.952,-1.952 -2.85,-4.212 -2.203,-6.239c0.648,-2.027 2.691,-3.347 5.418,-3.802c0.001,0 0.001,0 0.001,0l7.639,-1.269c0.709,-0.121 2.117,-1.159 2.438,-1.813c0.001,-0.003 0.003,-0.006 0.004,-0.009l4.218,-8.435c-0,-0 0,-0.001 0.001,-0.002c1.276,-2.538 3.158,-4.142 5.317,-4.142Zm-24.58,3.996c0.16,0 0.302,0.101 0.356,0.252l0.31,0.956c0.196,0.589 0.658,1.051 1.247,1.247l0.956,0.311l0.019,0.004c0.151,0.054 0.252,0.196 0.252,0.356c-0,0.16 -0.101,0.303 -0.252,0.356l-0.956,0.311c-0.589,0.196 -1.051,0.658 -1.247,1.247l-0.31,0.956c-0.054,0.151 -0.196,0.251 -0.356,0.251c-0.16,0 -0.303,-0.1 -0.356,-0.251l-0.311,-0.956c-0.194,-0.591 -0.657,-1.055 -1.247,-1.252l-0.956,-0.31c-0.151,-0.054 -0.252,-0.196 -0.252,-0.356c0,-0.16 0.101,-0.303 0.252,-0.356l0.956,-0.311c0.582,-0.201 1.036,-0.662 1.228,-1.247l0.311,-0.956c0.053,-0.151 0.196,-0.252 0.356,-0.252Zm9.343,2.006c0.149,0 0.281,0.094 0.331,0.234l0.288,0.887c0.182,0.547 0.611,0.976 1.158,1.158l0.887,0.288l0.018,0.005c0.14,0.049 0.234,0.182 0.234,0.331c-0,0.148 -0.094,0.28 -0.234,0.33l-0.887,0.288c-0.547,0.182 -0.977,0.611 -1.158,1.158l-0.289,0.887c-0.049,0.14 -0.181,0.234 -0.33,0.234c-0.149,0 -0.281,-0.094 -0.33,-0.234l-0.289,-0.887c-0.18,-0.549 -0.61,-0.979 -1.158,-1.162l-0.887,-0.288c-0.14,-0.05 -0.234,-0.182 -0.234,-0.331c0,-0.149 0.094,-0.281 0.234,-0.331l0.887,-0.288c0.541,-0.186 0.962,-0.615 1.14,-1.158l0.289,-0.887c0.049,-0.14 0.182,-0.234 0.33,-0.234Zm37.148,5.809c2.952,0.326 5.396,0.958 7.289,1.937c1.893,0.978 3.286,2.372 3.764,4.154c0.422,1.577 0.069,3.265 -0.815,4.865c-0.684,1.237 -1.686,2.457 -2.976,3.674l2.82,1.184c0.652,0.274 0.963,1.035 0.69,1.686c-0.201,0.478 -0.67,0.79 -1.188,0.79c-0.171,-0 -0.341,-0.034 -0.499,-0.1l-4.892,-2.054c-0.589,-0.248 -0.91,-0.898 -0.747,-1.516l1.649,-6.264c0.148,-0.564 0.662,-0.96 1.245,-0.96c0.111,-0 0.221,0.014 0.328,0.042c0.683,0.18 1.098,0.89 0.918,1.573l-0.549,2.086c0.386,-0.482 0.703,-0.947 0.946,-1.387c0.663,-1.199 0.796,-2.153 0.582,-2.952c-0.242,-0.904 -0.979,-1.768 -2.459,-2.533c-1.48,-0.765 -3.65,-1.362 -6.389,-1.664c-0.649,-0.072 -1.146,-0.627 -1.146,-1.281c-0,-0.047 0.002,-0.094 0.007,-0.141c0.078,-0.702 0.719,-1.216 1.422,-1.139Zm-53.327,11.858c0.113,-0.002 0.225,0.01 0.334,0.037l5.213,1.286c0.575,0.142 0.982,0.663 0.98,1.255l-0.022,6.484c-0.003,0.705 -0.583,1.283 -1.288,1.283c-0.002,0 -0.003,0 -0.005,0c-0.705,-0.002 -1.283,-0.583 -1.283,-1.288c-0,-0.001 -0,-0.003 -0,-0.004l0.013,-3.74c-0.994,0.951 -1.749,1.864 -2.252,2.699c-0.792,1.313 -0.963,2.357 -0.734,3.215c0.276,1.03 1.176,1.976 2.923,2.764c1.747,0.789 4.258,1.34 7.293,1.557c6.069,0.434 14.219,-0.438 22.86,-2.753c6.912,-1.852 13.42,-4.451 18.445,-7.346c0.195,-0.112 0.417,-0.172 0.643,-0.172c0.46,0 0.886,0.247 1.116,0.645c0.353,0.613 0.139,1.407 -0.473,1.759c-5.279,3.042 -11.962,5.699 -19.065,7.602c-8.873,2.378 -17.237,3.298 -23.71,2.835c-3.236,-0.232 -6.003,-0.801 -8.169,-1.779c-2.166,-0.977 -3.815,-2.444 -4.351,-4.445c-0.453,-1.692 -0.015,-3.503 1.016,-5.213c0.705,-1.168 1.694,-2.325 2.938,-3.476l-2.705,-0.667c-0.573,-0.141 -0.979,-0.66 -0.979,-1.251c-0,-0.103 0.012,-0.207 0.037,-0.308c0.139,-0.564 0.644,-0.967 1.225,-0.979Zm58.161,9.546c0.167,0 0.316,0.106 0.371,0.263l0.323,0.995c0.204,0.613 0.685,1.094 1.299,1.298l0.995,0.324l0.02,0.005c0.157,0.055 0.262,0.204 0.262,0.37c0,0.167 -0.105,0.316 -0.262,0.371l-0.995,0.323c-0.613,0.204 -1.095,0.686 -1.299,1.299l-0.323,0.995c-0.056,0.157 -0.204,0.262 -0.371,0.262c-0.166,0 -0.315,-0.105 -0.37,-0.262l-0.324,-0.995c-0.202,-0.615 -0.684,-1.099 -1.298,-1.304l-0.995,-0.323c-0.158,-0.055 -0.263,-0.204 -0.263,-0.371c0,-0.166 0.105,-0.315 0.263,-0.37l0.995,-0.324c0.605,-0.209 1.079,-0.689 1.278,-1.298l0.324,-0.995c0.055,-0.157 0.204,-0.263 0.37,-0.263Zm-11.108,3.559c0.513,0.086 0.926,0.474 1.043,0.981l1.015,4.39c0.001,0.001 0.001,0.001 0.001,0.001c0.364,1.579 0.449,2.974 0.224,4.195c-0.226,1.22 -0.803,2.296 -1.736,2.976c-0.933,0.68 -2.133,0.901 -3.366,0.745c-1.232,-0.156 -2.537,-0.661 -3.934,-1.485c0,-0.001 -0,-0.001 -0.001,-0.001l-7.164,-4.241c-0,-0 -0,-0 -0,-0c-0.76,-0.45 -2.643,-0.458 -3.44,0.004l-7.157,4.237l0.001,-0.001c-2.343,1.391 -4.501,1.93 -6.329,1.249c-1.828,-0.68 -2.825,-2.636 -2.829,-4.906c0,-0.001 0,-0.002 0,-0.002c0,-0.706 0.581,-1.288 1.287,-1.288c0.706,-0.001 1.288,0.579 1.289,1.286c0.003,1.635 0.453,2.236 1.152,2.496c0.698,0.26 2.143,0.121 4.116,-1.05c0,-0 0.001,-0 0.001,-0.001l7.165,-4.241c0.002,-0.001 0.005,-0.003 0.008,-0.005c1.84,-1.07 4.22,-1.078 6.048,0.005l0.001,0l7.163,4.241c1.179,0.696 2.193,1.052 2.947,1.147c0.754,0.096 1.208,-0.04 1.524,-0.271c0.317,-0.23 0.583,-0.618 0.72,-1.363c0.138,-0.744 0.107,-1.814 -0.2,-3.146l-1.016,-4.391c-0.022,-0.095 -0.033,-0.192 -0.033,-0.29c-0,-0.598 0.416,-1.12 0.998,-1.255c0.165,-0.038 0.335,-0.043 0.502,-0.016Zm7.146,6.359c0.127,0 0.24,0.08 0.282,0.2l0.247,0.759c0.155,0.468 0.522,0.835 0.99,0.99l0.758,0.247l0.015,0.003c0.12,0.043 0.2,0.156 0.2,0.283c0,0.127 -0.08,0.24 -0.2,0.283l-0.758,0.246c-0.468,0.156 -0.835,0.522 -0.99,0.99l-0.247,0.759c-0.042,0.119 -0.155,0.2 -0.282,0.2c-0.127,-0 -0.241,-0.081 -0.283,-0.2l-0.246,-0.759c-0.155,-0.469 -0.522,-0.838 -0.991,-0.994l-0.758,-0.246c-0.12,-0.043 -0.2,-0.156 -0.2,-0.283c0,-0.127 0.08,-0.24 0.2,-0.282l0.758,-0.247c0.462,-0.16 0.823,-0.526 0.975,-0.99l0.247,-0.759c0.042,-0.12 0.156,-0.2 0.283,-0.2Zm-45.579,2.048c0.104,-0 0.196,0.065 0.231,0.163l0.201,0.621c0.128,0.382 0.428,0.682 0.81,0.81l0.62,0.201l0.013,0.003c0.098,0.035 0.163,0.127 0.163,0.231c0,0.104 -0.065,0.197 -0.163,0.231l-0.621,0.202c-0.382,0.127 -0.682,0.427 -0.809,0.81l-0.202,0.62c-0.034,0.098 -0.127,0.163 -0.231,0.163c-0.104,0 -0.197,-0.065 -0.231,-0.163l-0.202,-0.62c-0.126,-0.384 -0.426,-0.685 -0.809,-0.813l-0.621,-0.202c-0.098,-0.034 -0.163,-0.127 -0.163,-0.231c-0,-0.104 0.065,-0.196 0.163,-0.231l0.621,-0.201c0.378,-0.131 0.672,-0.431 0.797,-0.81l0.202,-0.621c0.034,-0.098 0.127,-0.163 0.231,-0.163Zm22.146,2.06c0.191,-0 0.362,0.121 0.426,0.301l0.371,1.143c0.234,0.704 0.787,1.257 1.492,1.492l1.143,0.371l0.023,0.006c0.18,0.063 0.301,0.234 0.301,0.425c0,0.192 -0.121,0.363 -0.301,0.426l-1.143,0.372c-0.705,0.234 -1.258,0.787 -1.492,1.491l-0.371,1.143c-0.064,0.18 -0.235,0.301 -0.426,0.301c-0.191,0 -0.362,-0.121 -0.426,-0.301l-0.371,-1.143c-0.233,-0.707 -0.786,-1.262 -1.492,-1.497l-1.143,-0.372c-0.18,-0.063 -0.301,-0.234 -0.301,-0.425c0,-0.192 0.121,-0.362 0.301,-0.426l1.143,-0.371c0.696,-0.241 1.239,-0.793 1.469,-1.492l0.371,-1.143c0.064,-0.18 0.235,-0.301 0.426,-0.301Zm9.419,5.16c0.13,0 0.247,0.083 0.29,0.205l0.253,0.779c0.159,0.479 0.536,0.855 1.015,1.015l0.778,0.253l0.016,0.004c0.123,0.043 0.205,0.159 0.205,0.29c0,0.13 -0.082,0.246 -0.205,0.29l-0.778,0.252c-0.48,0.16 -0.856,0.536 -1.016,1.016l-0.252,0.778c-0.044,0.123 -0.16,0.205 -0.291,0.205c-0.13,0 -0.246,-0.082 -0.289,-0.205l-0.253,-0.778c-0.159,-0.481 -0.535,-0.859 -1.016,-1.02l-0.778,-0.252c-0.123,-0.044 -0.205,-0.16 -0.205,-0.29c0,-0.131 0.082,-0.247 0.205,-0.29l0.778,-0.253c0.474,-0.164 0.844,-0.539 1,-1.015l0.253,-0.779c0.043,-0.122 0.16,-0.205 0.29,-0.205Zm-17.271,0.112c0.14,-0 0.265,0.088 0.312,0.22l0.272,0.838c0.172,0.516 0.576,0.921 1.092,1.092l0.838,0.272l0.016,0.005c0.133,0.046 0.221,0.171 0.221,0.311c0,0.14 -0.088,0.266 -0.221,0.312l-0.837,0.272c-0.516,0.172 -0.921,0.577 -1.092,1.093l-0.272,0.837c-0.047,0.132 -0.172,0.22 -0.312,0.22c-0.14,0 -0.265,-0.088 -0.312,-0.22l-0.272,-0.837c-0.17,-0.518 -0.575,-0.925 -1.092,-1.097l-0.838,-0.272c-0.132,-0.047 -0.22,-0.172 -0.22,-0.312c-0,-0.14 0.088,-0.265 0.22,-0.312l0.838,-0.272c0.509,-0.176 0.907,-0.58 1.075,-1.092l0.272,-0.838c0.047,-0.132 0.172,-0.22 0.312,-0.22Z" fill="currentColor" fill-rule="nonzero"/></g></svg>