<svg width="261" height="66" viewBox="0 0 261 66" fill="none" xmlns="http://www.w3.org/2000/svg" xmlns:xlink="http://www.w3.org/1999/xlink">
<symbol id="logo-symbol-wordmark"><path d="M60.7539 14.4034C59.8143 7.41942 53.7273 1.91557 46.5117 0.849066C45.2943 0.668854 40.6819 0.0130005 29.9973 0.0130005H29.9175C19.2299 0.0130005 16.937 0.668854 15.7196 0.849066C8.70488 1.88602 2.29885 6.83152 0.744617 13.8982C-0.00294988 17.3784 -0.0827298 21.2367 0.0561464 24.7759C0.254119 29.8514 0.292531 34.918 0.753482 39.9728C1.07215 43.3305 1.62806 46.6614 2.41704 49.9406C3.89445 55.9969 9.87499 61.0369 15.7344 63.0931C22.0077 65.2374 28.7542 65.5934 35.2184 64.1212C35.9295 63.9558 36.6318 63.7638 37.3252 63.5451C38.8971 63.0459 40.738 62.4875 42.0913 61.5067C42.1099 61.4929 42.1251 61.4751 42.1358 61.4547C42.1466 61.4342 42.1526 61.4116 42.1534 61.3885V56.4903C42.153 56.4687 42.1479 56.4475 42.1383 56.4281C42.1287 56.4088 42.1149 56.3918 42.0979 56.3785C42.0809 56.3652 42.0611 56.3559 42.04 56.3512C42.019 56.3465 41.9971 56.3466 41.9761 56.3514C37.8345 57.3406 33.5905 57.8364 29.3324 57.8286C22.0045 57.8286 20.0336 54.3514 19.4693 52.9038C19.0156 51.6527 18.7275 50.3476 18.6124 49.0218C18.6112 48.9996 18.6153 48.9773 18.6243 48.9569C18.6333 48.9366 18.647 48.9186 18.6643 48.9045C18.6816 48.8904 18.7019 48.8805 18.7237 48.8758C18.7455 48.871 18.7681 48.8715 18.7897 48.8771C22.8622 49.8595 27.037 50.3553 31.2265 50.3542C32.234 50.3542 33.2387 50.3542 34.2463 50.3276C38.4598 50.2094 42.9009 49.9938 47.0465 49.1843C47.1499 49.1636 47.2534 49.1459 47.342 49.1193C53.881 47.8637 60.1038 43.9227 60.7362 33.9431C60.7598 33.5502 60.8189 29.8278 60.8189 29.4201C60.8218 28.0345 61.2651 19.5911 60.7539 14.4034Z" fill="url(#paint0_linear_89_11)"/>
<path d="M12.3442 18.3034C12.3442 16.2668 13.9777 14.6194 15.997 14.6194C18.0163 14.6194 19.6497 16.2668 19.6497 18.3034C19.6497 20.34 18.0163 21.9874 15.997 21.9874C13.9777 21.9874 12.3442 20.34 12.3442 18.3034Z" fill="currentColor"/>
<switch>
<path systemLanguage="ko" d="M44.391,2.16C34.983,2.16 27.975,4.848 27.975,12.528C27.975,20.208 35.463,22.896 44.391,22.896C53.319,22.896 60.807,20.208 60.807,12.528C60.807,4.848 53.799,2.16 44.391,2.16ZM40.551,32.448L40.551,42.384C40.551,44.4 41.943,45.888 44.391,45.888C46.839,45.888 48.231,44.4 48.231,42.384L48.231,32.448L62.391,32.448C64.551,32.448 65.847,31.344 65.847,29.184C65.847,27.024 64.551,25.92 62.391,25.92L26.391,25.92C24.231,25.92 22.935,27.024 22.935,29.184C22.935,31.344 24.231,32.448 26.391,32.448L40.551,32.448ZM44.391,8.496C48.999,8.496 53.319,9.36 53.319,12.528C53.319,15.648 48.999,16.56 44.391,16.56C39.783,16.56 35.463,15.648 35.463,12.528C35.463,9.36 39.783,8.496 44.391,8.496ZM98.487,42.384C98.487,44.64 100.071,45.888 102.327,45.888C104.583,45.888 106.167,44.64 106.167,42.384L106.167,4.848C106.167,2.592 104.583,1.344 102.327,1.344C100.071,1.344 98.487,2.592 98.487,4.848L98.487,42.384ZM72.135,3.456C70.263,3.456 68.871,4.512 68.871,6.528C68.871,8.496 70.263,9.552 72.135,9.552L83.175,9.552C83.655,9.552 83.847,9.792 83.847,10.272L83.847,15.024C83.847,15.6 83.655,15.744 83.175,15.744L73.815,15.744C70.695,15.744 68.871,17.28 68.871,20.4L68.871,30.768C68.871,33.888 70.503,35.424 73.623,35.424L77.847,35.424C82.983,35.424 87.255,35.136 91.815,34.416C93.639,34.08 94.839,32.736 94.455,30.768C94.119,28.8 92.679,28.224 90.855,28.464C86.727,29.04 83.367,29.328 78.519,29.328L77.031,29.328C76.551,29.328 76.359,29.136 76.359,28.656L76.359,22.416C76.359,21.936 76.551,21.744 77.031,21.744L86.583,21.744C89.703,21.744 91.287,20.208 91.287,17.088L91.287,8.112C91.287,4.992 89.703,3.456 86.583,3.456L72.135,3.456ZM110.391,38.064C110.391,40.416 112.311,42.336 114.663,42.336C117.015,42.336 118.935,40.416 118.935,38.064C118.935,35.712 117.015,33.792 114.663,33.792C112.311,33.792 110.391,35.712 110.391,38.064ZM146.343,28.608C146.343,30.864 147.927,32.112 150.183,32.112C152.439,32.112 154.023,30.864 154.023,28.608L154.023,4.848C154.023,2.592 152.439,1.344 150.183,1.344C147.927,1.344 146.343,2.592 146.343,4.848L146.343,28.608ZM126.807,28.704C124.551,28.704 122.919,30.048 122.919,32.352L122.919,41.136C122.919,44.16 124.167,45.36 127.287,45.36L151.959,45.36C153.975,45.36 155.223,44.208 155.223,42.192C155.223,40.176 153.975,39.024 151.959,39.024L131.511,39.024C130.839,39.024 130.695,38.88 130.695,38.208L130.695,32.352C130.695,30.048 129.063,28.704 126.807,28.704ZM116.247,13.728C116.247,21.12 121.143,25.536 128.535,25.536C135.879,25.536 140.823,21.12 140.823,13.728C140.823,6.336 135.927,1.92 128.535,1.92C121.143,1.92 116.247,6.336 116.247,13.728ZM123.735,13.728C123.735,10.416 125.223,7.776 128.535,7.776C131.847,7.776 133.335,10.416 133.335,13.728C133.335,17.04 131.847,19.68 128.535,19.68C125.223,19.68 123.735,17.04 123.735,13.728ZM182.247,26.88C172.983,26.88 166.311,30 166.311,36.624C166.311,43.248 172.983,46.368 182.247,46.368C191.511,46.368 198.183,43.248 198.183,36.624C198.183,30 191.511,26.88 182.247,26.88ZM181.911,21.696C181.911,23.76 183.159,24.912 185.223,24.912C187.287,24.912 188.535,23.76 188.535,21.696L188.535,15.552L191.511,15.552L191.511,23.136C191.511,25.2 192.807,26.352 194.871,26.352C196.935,26.352 198.183,25.2 198.183,23.136L198.183,4.608C198.183,2.544 196.935,1.344 194.871,1.344C192.807,1.344 191.511,2.544 191.511,4.608L191.511,9.888L188.535,9.888L188.535,5.04C188.535,2.976 187.287,1.824 185.223,1.824C183.159,1.824 181.911,2.976 181.911,5.04L181.911,21.696ZM169.527,18.24C170.823,20.256 172.647,22.368 174.903,23.904C176.487,24.96 178.311,24.96 179.559,23.712C180.951,22.32 180.615,20.352 178.983,18.864C174.999,15.264 173.175,11.856 173.175,7.296L173.175,5.328C173.175,3.168 171.687,1.92 169.527,1.92C167.367,1.92 165.879,3.168 165.879,5.328L165.879,7.296C165.879,11.856 163.719,15.696 159.927,19.104C158.247,20.64 157.815,22.656 159.303,24.144C160.791,25.632 162.807,25.392 164.535,24.096C166.743,22.416 168.327,20.16 169.527,18.24ZM182.247,40.512C177.303,40.512 174.087,39.36 174.087,36.624C174.087,33.888 177.303,32.736 182.247,32.736C187.191,32.736 190.407,33.888 190.407,36.624C190.407,39.36 187.191,40.512 182.247,40.512Z" fill="currentColor"/>
<path d="M27.89,29.588C27.89,35.06 31.25,38.756 36.769,38.756C39.602,38.756 42.29,37.364 43.298,35.108C43.442,36.788 44.737,38.324 46.802,38.324C48.962,38.324 50.353,37.124 50.353,34.676L50.353,18.116C50.353,15.86 48.962,14.468 46.706,14.468C44.45,14.468 43.105,15.86 43.105,18.116L43.105,28.772C43.105,31.028 41.329,32.612 39.122,32.612C36.769,32.612 35.138,30.884 35.138,28.724L35.138,18.116C35.138,15.86 33.745,14.468 31.49,14.468C29.234,14.468 27.89,15.86 27.89,18.116L27.89,29.588ZM65.042,20.132C66.146,20.132 67.106,20.372 68.066,20.612C69.89,21.044 71.474,20.42 72.194,18.692C72.866,16.964 72.05,15.524 70.61,14.852C69.362,14.276 68.257,14.084 66.914,14.084C64.37,14.084 62.257,15.62 61.73,17.828C61.489,15.476 60.242,14.468 58.225,14.468C55.969,14.468 54.674,15.908 54.674,18.164L54.674,34.676C54.674,36.932 56.066,38.324 58.322,38.324C60.578,38.324 61.921,36.932 61.921,34.676L61.921,24.068C61.921,21.764 63.025,20.132 65.042,20.132ZM75.122,34.676C75.122,36.932 76.562,38.324 78.818,38.324C81.074,38.324 82.465,36.932 82.465,34.676L82.465,17.78C82.465,15.524 81.074,14.084 78.818,14.084C76.562,14.084 75.122,15.524 75.122,17.78L75.122,34.676ZM83.042,5.492C83.042,3.14 81.17,1.268 78.818,1.268C76.465,1.268 74.593,3.14 74.593,5.492C74.593,7.844 76.465,9.716 78.818,9.716C81.17,9.716 83.042,7.844 83.042,5.492ZM87.122,36.212C87.122,38.564 89.041,40.484 91.393,40.484C93.745,40.484 95.665,38.564 95.665,36.212C95.665,33.86 93.745,31.94 91.393,31.94C89.041,31.94 87.122,33.86 87.122,36.212ZM99.745,30.356C99.745,35.972 102.001,38.756 107.473,38.756C109.009,38.756 110.209,38.564 111.217,38.132C112.753,37.508 113.378,35.972 112.945,34.388C112.513,32.852 111.074,32.228 109.297,32.564C109.057,32.612 108.913,32.66 108.673,32.66C107.617,32.66 107.041,31.892 107.041,30.356L107.041,5.396C107.041,3.14 105.649,1.748 103.393,1.748C101.137,1.748 99.745,3.14 99.745,5.396L99.745,30.356ZM115.777,34.676C115.777,36.932 117.217,38.324 119.473,38.324C121.729,38.324 123.122,36.932 123.122,34.676L123.122,17.78C123.122,15.524 121.729,14.084 119.473,14.084C117.217,14.084 115.777,15.524 115.777,17.78L115.777,34.676ZM123.697,5.492C123.697,3.14 121.825,1.268 119.473,1.268C117.121,1.268 115.249,3.14 115.249,5.492C115.249,7.844 117.121,9.716 119.473,9.716C121.825,9.716 123.697,7.844 123.697,5.492ZM140.402,1.748C135.218,1.748 131.762,4.676 131.762,9.86L131.762,14.756L130.082,14.756C128.065,14.756 126.818,15.86 126.818,17.78C126.818,19.7 128.065,20.804 130.082,20.804L131.762,20.804L131.762,34.676C131.762,36.932 133.154,38.324 135.41,38.324C137.666,38.324 139.058,36.932 139.058,34.676L139.058,20.804L143.474,20.804C145.442,20.804 146.69,19.7 146.69,17.78C146.69,15.86 145.442,14.756 143.474,14.756L139.058,14.756L139.058,10.388C139.058,8.9 139.874,7.556 141.362,7.556C142.369,7.556 143.282,7.892 144.002,8.228C145.202,8.804 146.69,8.612 147.601,7.316C148.466,6.068 148.13,4.388 147.122,3.572C145.49,2.18 143.041,1.748 140.402,1.748ZM155.137,23.492C155.137,21.236 157.49,19.508 160.177,19.508C162.866,19.508 165.218,21.236 165.218,23.492L155.137,23.492ZM169.969,35.828C171.409,34.484 172.082,32.612 170.881,31.268C169.73,29.876 167.761,29.924 166.418,31.076C164.881,32.324 163.345,33.188 160.849,33.188C157.634,33.188 155.137,30.932 155.137,28.244L168.146,28.244C170.785,28.244 171.698,27.044 171.698,24.404C171.698,19.076 167.522,14.084 160.177,14.084C152.978,14.084 148.369,19.22 148.369,26.276C148.369,33.572 152.737,38.756 160.849,38.756C164.498,38.756 167.761,37.892 169.969,35.828Z" fill="currentColor"/>
</switch>
<defs>
<linearGradient id="paint0_linear_89_11" x1="30.5" y1="0.0130005" x2="30.5" y2="65.013" gradientUnits="userSpaceOnUse">
<stop stop-color="#6364FF"/>
<stop offset="1" stop-color="#563ACC"/>
</linearGradient>
</defs></symbol><use xlink:href="#logo-symbol-wordmark" style="color:#fff"/>
</svg>
