<svg
  width="261"
  height="66"
  viewBox="0 0 261 66"
  fill="none"
  xmlns="http://www.w3.org/2000/svg"
  xmlns:xlink="http://www.w3.org/1999/xlink">
  <symbol id="logo-symbol-wordmark">
    <path
      fill="currentColor"
      d="M 85.494141 0 A 4 4 0 0 0 81.494141 4 L 81.494141 42.818359 A 4 4 0 0 0 85.494141 46.818359 L 87.214844 46.818359 A 4 4 0 0 0 91.214844 42.818359 L 91.214844 4 A 4 4 0 0 0 87.214844 0 L 85.494141 0 z M 205.00586 0 A 4 4 0 0 0 201.00586 4 L 201.00586 30.398438 A 4 4 0 0 0 205.00586 34.398438 L 206.72461 34.398438 A 4 4 0 0 0 210.72461 30.398438 L 210.72461 4 A 4 4 0 0 0 206.72461 0 L 205.00586 0 z M 255.11719 0 A 4 4 0 0 0 251.11719 4 L 251.11719 8.4238281 L 248.74219 8.4238281 L 248.74219 4.2695312 A 4 4 0 0 0 244.74219 0.26953125 L 243.83398 0.26953125 A 4 4 0 0 0 239.83398 4.2695312 L 239.83398 22.837891 A 4 4 0 0 0 243.83398 26.837891 L 244.74219 26.837891 A 4 4 0 0 0 248.74219 22.837891 L 248.74219 17.064453 L 251.11719 17.064453 L 251.11719 22.837891 A 4 4 0 0 0 255.11719 26.837891 L 256.0293 26.837891 A 4 4 0 0 0 260.0293 22.837891 L 260.0293 4 A 4 4 0 0 0 256.0293 0 L 255.11719 0 z M 182.32227 0.0546875 C 174.33027 0.0546875 167.74219 3.4006726 167.74219 15.388672 C 167.74219 26.998672 174.33027 30.726562 182.32227 30.726562 C 190.31427 30.726562 196.90234 26.998672 196.90234 15.388672 C 196.90234 3.4006726 190.31427 0.0546875 182.32227 0.0546875 z M 21.382812 0.109375 C 5.9388126 0.109375 0.703125 4.805454 0.703125 12.689453 C 0.703125 20.627453 6.0468126 25.271484 21.382812 25.271484 C 36.718818 25.271484 42.066406 20.627453 42.066406 12.689453 C 42.066406 4.805454 36.826818 0.109375 21.382812 0.109375 z M 226.44336 0.54101562 A 4 4 0 0 0 222.44336 4.5410156 L 222.44336 10.044922 C 222.44336 13.666799 221.6297 15.770776 217.91602 17.828125 C 216.46741 18.630641 215.49185 20.429354 215.8418 22.048828 L 215.88086 22.220703 C 216.46412 24.919826 219.09983 26.488041 221.60156 25.324219 C 224.02317 24.197663 226.12219 22.878944 227.4668 21.601562 C 228.67939 22.554315 230.13844 23.490972 231.78711 24.289062 C 234.26778 25.489915 237.1193 23.827765 237.90234 21.179688 C 238.37165 19.592558 237.49943 17.808686 236.06641 16.982422 C 232.8967 15.154794 231.94727 13.266953 231.94727 10.044922 L 231.94727 4.5410156 A 4 4 0 0 0 227.94727 0.54101562 L 226.44336 0.54101562 z M 53.472656 1.0800781 A 4 4 0 0 0 49.472656 5.0800781 L 49.472656 6.2597656 A 4 4 0 0 0 53.472656 10.259766 L 64.402344 10.259766 A 1 1 0 0 1 65.402344 11.259766 L 65.402344 17.089844 A 1 1 0 0 1 64.402344 18.089844 L 52.931641 18.089844 A 4 4 0 0 0 48.931641 22.089844 L 48.931641 39.849609 A 4 4 0 0 0 52.931641 43.849609 L 73.283203 43.849609 A 4 4 0 0 0 77.283203 39.849609 L 77.283203 38.667969 A 4 4 0 0 0 73.283203 34.667969 L 59.652344 34.667969 A 1 1 0 0 1 58.652344 33.667969 L 58.652344 28.269531 A 1 1 0 0 1 59.652344 27.269531 L 71.121094 27.269531 A 4 4 0 0 0 75.121094 23.269531 L 75.121094 5.0800781 A 4 4 0 0 0 71.121094 1.0800781 L 53.472656 1.0800781 z M 21.382812 8.4785156 C 29.860817 8.4785156 32.617187 9.6114539 32.617188 12.689453 C 32.617188 15.659453 29.644818 16.902344 21.382812 16.902344 C 13.120812 16.902344 10.152344 15.659453 10.152344 12.689453 C 10.152344 9.6114539 12.904813 8.4785156 21.382812 8.4785156 z M 182.32227 9.1269531 C 185.45427 9.1269531 187.50586 10.744672 187.50586 15.388672 C 187.50586 19.870672 185.40027 21.654297 182.32227 21.654297 C 179.24427 21.654297 177.13867 19.870672 177.13867 15.388672 C 177.13867 10.744672 179.19027 9.1269531 182.32227 9.1269531 z M 4 27.541016 A 4 4 0 0 0 0 31.541016 L 0 32.449219 A 4 4 0 0 0 4 36.449219 L 16.416016 36.449219 L 16.416016 43.628906 A 4 4 0 0 0 20.416016 47.628906 L 22.298828 47.628906 A 4 4 0 0 0 26.298828 43.628906 L 26.298828 36.449219 L 38.714844 36.449219 A 4 4 0 0 0 42.714844 32.449219 L 42.714844 31.541016 A 4 4 0 0 0 38.714844 27.541016 L 4 27.541016 z M 239.88477 28.296875 C 221.20077 28.296875 218.77344 32.995328 218.77344 38.611328 C 218.77344 44.713328 221.20077 48.923828 239.88477 48.923828 C 258.56877 48.923828 261 44.713328 261 38.611328 C 261 32.995328 258.56877 28.296875 239.88477 28.296875 z M 174.2793 32.183594 A 4 4 0 0 0 170.2793 36.183594 L 170.2793 43.357422 A 4 4 0 0 0 174.2793 47.357422 L 207.10352 47.357422 A 4 4 0 0 0 211.10352 43.357422 L 211.10352 42.71875 A 4 4 0 0 0 207.10352 38.71875 L 180.72852 38.71875 A 1 1 0 0 1 179.72852 37.71875 L 179.72852 36.183594 A 4 4 0 0 0 175.72852 32.183594 L 174.2793 32.183594 z M 239.88477 36.126953 C 249.92877 36.126953 250.74023 37.099328 250.74023 38.611328 C 250.74023 40.123328 249.98277 41.095703 239.88477 41.095703 C 229.78677 41.095703 229.0332 40.123328 229.0332 38.611328 C 229.0332 37.099328 229.84077 36.126953 239.88477 36.126953 z " />
    <circle
       fill="#ffffff"
       cx="130.85201"
       cy="33"
       r="30" />
    <path 
      fill="#7ca7cf"
      d="M130.852,0c-18.103,0 -33,14.897 -33,33c-0,-0 -0,-0 -0,0c-0,18.103 14.897,33 33,33c-0,0 -0,0 0,0c18.103,0 33,-14.897 33,-33c0,-0 0,-0 -0,-0c-0,-18.103 -14.897,-33 -33,-33c-0,-0 -0,-0 -0,0Zm-9.762,7.462c0.192,0 0.363,0.121 0.427,0.302l0.372,1.144c0.234,0.706 0.788,1.259 1.493,1.494l1.144,0.372l0.023,0.005c0.181,0.064 0.301,0.235 0.301,0.427c0,0.191 -0.12,0.362 -0.301,0.426l-1.144,0.372c-0.706,0.234 -1.259,0.788 -1.494,1.493l-0.372,1.144c-0.064,0.181 -0.234,0.302 -0.426,0.302c-0.192,-0 -0.362,-0.121 -0.426,-0.302l-0.372,-1.144c-0.233,-0.707 -0.787,-1.263 -1.493,-1.499l-1.145,-0.372c-0.181,-0.064 -0.301,-0.234 -0.301,-0.426c-0,-0.192 0.121,-0.363 0.301,-0.426l1.145,-0.372c0.696,-0.241 1.24,-0.793 1.47,-1.494l0.372,-1.144c0.064,-0.181 0.234,-0.302 0.426,-0.302l0,0Zm21.82,1.9c0.232,-0 0.438,0.146 0.516,0.364l0.449,1.383c0.284,0.853 0.952,1.522 1.805,1.805l1.383,0.45l0.028,0.007c0.219,0.077 0.365,0.283 0.365,0.515c0,0.232 -0.146,0.438 -0.365,0.515l-1.383,0.45c-0.852,0.283 -1.521,0.952 -1.805,1.805l-0.449,1.383c-0.077,0.218 -0.284,0.365 -0.516,0.365c-0.231,-0 -0.438,-0.147 -0.515,-0.365l-0.449,-1.383c-0.282,-0.855 -0.951,-1.527 -1.805,-1.812l-1.384,-0.45c-0.218,-0.077 -0.364,-0.283 -0.364,-0.515c0,-0.231 0.146,-0.438 0.364,-0.515l1.384,-0.45c0.842,-0.29 1.499,-0.958 1.777,-1.805l0.45,-1.383c0.077,-0.218 0.283,-0.364 0.515,-0.364l-0.001,-0Zm-12.065,2.703c1.803,0 3.373,1.342 4.429,3.463l0.001,0.002l3.522,7.044c0.001,0.003 0.002,0.005 0.003,0.008c0.267,0.546 1.434,1.411 2.052,1.514l6.386,1.061c0.001,-0 0.001,0 0.001,0c2.278,0.38 3.989,1.48 4.534,3.174c0.544,1.694 -0.208,3.584 -1.848,5.214l-0.002,0.003l-0.551,0.551c-0.202,0.202 -0.476,0.316 -0.761,0.316c-0.285,-0 -0.559,-0.114 -0.761,-0.316c-0.202,-0.201 -0.315,-0.475 -0.315,-0.761c-0,-0.285 0.113,-0.559 0.315,-0.761l0.554,-0.553c0.001,-0.001 0.002,-0.002 0.003,-0.003c1.3,-1.292 1.538,-2.343 1.317,-3.031c-0.221,-0.688 -1.032,-1.409 -2.837,-1.71l-6.386,-1.061c-0,-0 -0.001,-0 -0.001,-0c-1.544,-0.257 -2.939,-1.275 -3.632,-2.69l-3.52,-7.039c0,-0 -0,-0.001 -0.001,-0.002c-0.846,-1.701 -1.788,-2.271 -2.502,-2.271c-0.713,0 -1.662,0.572 -2.518,2.273l-0,0.001l-0.001,0.002l-3.518,7.036c-0.694,1.416 -2.08,2.43 -3.609,2.69c-0.001,-0 -0.002,-0 -0.003,-0l-6.386,1.061c-1.805,0.301 -2.61,1.02 -2.829,1.708c-0.22,0.689 0.019,1.744 1.312,3.036l4.964,4.964c1.191,1.191 1.697,2.986 1.33,4.62c-0,0.002 -0.001,0.005 -0.002,0.007l-0.228,0.99c-0.113,0.487 -0.55,0.834 -1.049,0.834c-0.082,0 -0.163,-0.009 -0.243,-0.027c-0.486,-0.113 -0.833,-0.55 -0.833,-1.049c-0,-0.081 0.009,-0.163 0.027,-0.242l0.228,-0.984c0.154,-0.688 -0.261,-2.137 -0.752,-2.627l-4.964,-4.965c-1.631,-1.63 -2.382,-3.518 -1.841,-5.212c0.541,-1.693 2.248,-2.796 4.527,-3.176c-0,0 0,0 0,-0l6.382,-1.06c0.592,-0.101 1.769,-0.968 2.037,-1.515c0.001,-0.002 0.002,-0.005 0.003,-0.008l3.523,-7.046c0,-0.001 0.001,-0.001 0.001,-0.002c1.066,-2.121 2.639,-3.461 4.442,-3.461l0,0Zm-20.535,3.339c0.134,0 0.253,0.084 0.297,0.211l0.26,0.798c0.163,0.492 0.549,0.878 1.041,1.042l0.799,0.259l0.017,0.004c0.126,0.045 0.21,0.164 0.21,0.298c0,0.134 -0.084,0.253 -0.21,0.297l-0.799,0.26c-0.492,0.163 -0.878,0.549 -1.041,1.041l-0.26,0.799c-0.044,0.126 -0.163,0.21 -0.297,0.21c-0.134,0 -0.253,-0.084 -0.298,-0.21l-0.259,-0.799c-0.162,-0.493 -0.549,-0.881 -1.042,-1.045l-0.798,-0.26c-0.126,-0.044 -0.211,-0.163 -0.211,-0.297c0,-0.134 0.085,-0.253 0.211,-0.298l0.798,-0.259c0.486,-0.168 0.866,-0.553 1.026,-1.042l0.26,-0.798c0.044,-0.127 0.163,-0.211 0.297,-0.211l-0.001,0Zm7.806,1.676c0.124,0 0.235,0.078 0.276,0.195l0.241,0.742c0.152,0.457 0.51,0.815 0.967,0.967l0.741,0.241l0.015,0.004c0.117,0.041 0.195,0.152 0.195,0.276c0,0.124 -0.078,0.234 -0.195,0.276l-0.742,0.241c-0.456,0.151 -0.815,0.51 -0.967,0.967l-0.241,0.741c-0.041,0.117 -0.152,0.195 -0.276,0.195c-0.124,0 -0.235,-0.078 -0.276,-0.195l-0.241,-0.741c-0.151,-0.459 -0.509,-0.818 -0.967,-0.971l-0.741,-0.241c-0.117,-0.041 -0.196,-0.152 -0.196,-0.276c0,-0.124 0.078,-0.235 0.196,-0.276l0.741,-0.241c0.451,-0.156 0.804,-0.514 0.952,-0.967l0.241,-0.742c0.042,-0.117 0.152,-0.195 0.276,-0.195l0.001,0Zm31.034,4.853c2.466,0.272 4.509,0.8 6.09,1.618c1.581,0.817 2.746,1.982 3.145,3.471c0.352,1.317 0.057,2.727 -0.681,4.064c-0.571,1.033 -1.408,2.053 -2.487,3.069l2.357,0.99c0.544,0.228 0.804,0.864 0.576,1.408c-0.168,0.399 -0.56,0.66 -0.992,0.66c-0.143,0 -0.285,-0.028 -0.417,-0.084l-4.087,-1.716c-0.493,-0.206 -0.76,-0.75 -0.624,-1.266l1.377,-5.233c0.124,-0.472 0.553,-0.802 1.04,-0.802c0.093,-0 0.185,0.011 0.274,0.035c0.571,0.15 0.917,0.744 0.767,1.314l-0.458,1.743c0.323,-0.403 0.587,-0.792 0.79,-1.159c0.554,-1.002 0.665,-1.799 0.486,-2.466c-0.202,-0.755 -0.818,-1.477 -2.054,-2.116c-1.237,-0.639 -3.05,-1.138 -5.337,-1.391c-0.543,-0.06 -0.959,-0.523 -0.959,-1.069c0,-0.04 0.003,-0.079 0.007,-0.119c0.065,-0.586 0.601,-1.016 1.187,-0.951Zm-44.551,9.907c0.094,-0.002 0.188,0.008 0.279,0.031l4.355,1.074c0.481,0.118 0.821,0.554 0.819,1.048l-0.02,5.417c-0.002,0.589 -0.487,1.072 -1.076,1.072c-0.001,0 -0.003,0 -0.004,0c-0.589,-0.002 -1.072,-0.487 -1.072,-1.076c-0,-0.001 -0,-0.002 -0,-0.004l0.011,-3.124c-0.83,0.795 -1.46,1.558 -1.881,2.255c-0.661,1.097 -0.805,1.97 -0.613,2.686c0.231,0.861 0.982,1.651 2.442,2.31c1.459,0.658 3.558,1.119 6.093,1.3c5.07,0.363 11.879,-0.366 19.098,-2.3c5.775,-1.547 11.211,-3.718 15.409,-6.137c0.164,-0.094 0.349,-0.144 0.538,-0.144c0.384,0 0.74,0.206 0.932,0.539c0.295,0.512 0.116,1.175 -0.395,1.47c-4.41,2.541 -9.993,4.761 -15.927,6.351c-7.414,1.986 -14.401,2.755 -19.809,2.368c-2.704,-0.193 -5.015,-0.669 -6.825,-1.486c-1.809,-0.817 -3.187,-2.042 -3.635,-3.713c-0.379,-1.415 -0.011,-2.927 0.849,-4.355c0.589,-0.977 1.415,-1.943 2.455,-2.905l-2.26,-0.557c-0.479,-0.118 -0.819,-0.551 -0.819,-1.045c0,-0.087 0.011,-0.173 0.032,-0.257c0.116,-0.472 0.538,-0.809 1.023,-0.818l0.001,-0Zm48.591,7.975c0.139,-0 0.263,0.088 0.309,0.219l0.27,0.831c0.171,0.513 0.573,0.915 1.085,1.085l0.831,0.27l0.017,0.005c0.132,0.046 0.22,0.17 0.22,0.309c-0,0.14 -0.088,0.264 -0.22,0.31l-0.831,0.27c-0.512,0.17 -0.914,0.573 -1.085,1.085l-0.27,0.832c-0.046,0.131 -0.17,0.219 -0.309,0.219c-0.14,-0 -0.264,-0.088 -0.31,-0.219l-0.27,-0.832c-0.169,-0.514 -0.572,-0.918 -1.085,-1.089l-0.831,-0.27c-0.132,-0.046 -0.219,-0.17 -0.219,-0.31c-0,-0.139 0.087,-0.263 0.219,-0.309l0.831,-0.271c0.506,-0.174 0.901,-0.576 1.068,-1.084l0.27,-0.832c0.047,-0.131 0.171,-0.219 0.31,-0.219l-0,-0Zm-9.281,2.973c0.429,0.072 0.774,0.396 0.871,0.819l0.849,3.668c-0,0.001 0,0.001 0,0.001c0.304,1.319 0.375,2.485 0.187,3.504c-0.189,1.02 -0.671,1.919 -1.45,2.487c-0.779,0.568 -1.782,0.753 -2.812,0.622c-1.029,-0.13 -2.12,-0.552 -3.286,-1.241c-0.001,0 -0.001,0 -0.001,0l-5.986,-3.543c0,-0 0,-0 0,-0c-0.635,-0.376 -2.208,-0.383 -2.873,0.003l-5.979,3.54l0,-0.001c-1.957,1.162 -3.761,1.612 -5.288,1.044c-1.526,-0.569 -2.36,-2.203 -2.363,-4.1c0,-0 0,-0.001 0,-0.001c0,-0.59 0.485,-1.076 1.075,-1.076c0.59,-0.001 1.076,0.484 1.077,1.074c0.002,1.366 0.379,1.869 0.962,2.086c0.583,0.217 1.791,0.101 3.439,-0.878c0.001,0 0.001,0 0.001,0l5.986,-3.543c0.002,-0.002 0.004,-0.003 0.006,-0.005c1.537,-0.894 3.526,-0.9 5.053,0.005l0,-0l5.984,3.542c0.986,0.582 1.832,0.879 2.463,0.959c0.63,0.08 1.009,-0.034 1.273,-0.226c0.265,-0.193 0.487,-0.517 0.602,-1.139c0.115,-0.622 0.089,-1.516 -0.168,-2.629l-0.848,-3.668c-0.019,-0.079 -0.028,-0.161 -0.028,-0.242c-0,-0.5 0.347,-0.936 0.834,-1.049c0.137,-0.032 0.28,-0.036 0.419,-0.013l0.001,0Zm5.97,5.313c0.106,-0 0.201,0.067 0.236,0.167l0.206,0.634c0.13,0.39 0.436,0.697 0.827,0.827l0.634,0.206l0.011,0.003c0.1,0.035 0.167,0.13 0.167,0.236c0,0.106 -0.067,0.201 -0.167,0.236l-0.634,0.206c-0.39,0.13 -0.697,0.436 -0.827,0.827l-0.206,0.634c-0.035,0.1 -0.13,0.167 -0.236,0.167c-0.106,-0 -0.201,-0.067 -0.236,-0.167l-0.206,-0.634c-0.129,-0.392 -0.436,-0.7 -0.827,-0.83l-0.634,-0.206c-0.1,-0.035 -0.167,-0.13 -0.167,-0.236c0,-0.106 0.067,-0.201 0.167,-0.236l0.634,-0.206c0.386,-0.133 0.687,-0.439 0.814,-0.827l0.206,-0.634c0.036,-0.1 0.13,-0.167 0.236,-0.167l0.002,-0Zm-38.079,1.71c0.087,0 0.164,0.055 0.193,0.137l0.169,0.518c0.106,0.32 0.357,0.571 0.676,0.677l0.519,0.168l0.011,0.003c0.082,0.028 0.137,0.106 0.137,0.193c-0,0.087 -0.055,0.164 -0.137,0.193l-0.519,0.168c-0.319,0.106 -0.57,0.357 -0.676,0.677l-0.168,0.518c-0.029,0.082 -0.107,0.136 -0.193,0.136c-0.087,0 -0.165,-0.054 -0.193,-0.136l-0.169,-0.518c-0.105,-0.321 -0.356,-0.573 -0.676,-0.679l-0.518,-0.169c-0.082,-0.029 -0.137,-0.106 -0.137,-0.193c0,-0.087 0.055,-0.164 0.137,-0.193l0.518,-0.168c0.316,-0.109 0.562,-0.36 0.666,-0.677l0.168,-0.518c0.029,-0.082 0.107,-0.137 0.193,-0.137l-0.001,0Zm18.502,1.721c0.16,0 0.303,0.101 0.356,0.252l0.31,0.955c0.196,0.589 0.658,1.05 1.246,1.246l0.955,0.31l0.02,0.005c0.151,0.053 0.252,0.196 0.252,0.356c-0,0.16 -0.101,0.302 -0.252,0.355l-0.955,0.311c-0.588,0.195 -1.05,0.657 -1.246,1.246l-0.31,0.955c-0.053,0.15 -0.196,0.251 -0.356,0.251c-0.16,0 -0.302,-0.101 -0.356,-0.251l-0.31,-0.955c-0.194,-0.591 -0.656,-1.054 -1.246,-1.251l-0.955,-0.31c-0.151,-0.054 -0.252,-0.196 -0.252,-0.356c0,-0.16 0.101,-0.303 0.252,-0.356l0.955,-0.31c0.581,-0.201 1.035,-0.662 1.227,-1.246l0.31,-0.955c0.054,-0.151 0.196,-0.252 0.356,-0.252l-0.001,0Zm7.869,4.312c0.109,-0 0.206,0.068 0.242,0.171l0.212,0.65c0.133,0.401 0.447,0.715 0.848,0.848l0.65,0.212l0.014,0.003c0.103,0.036 0.172,0.133 0.172,0.242c-0,0.109 -0.069,0.206 -0.172,0.242l-0.65,0.212c-0.401,0.133 -0.715,0.447 -0.848,0.848l-0.211,0.65c-0.037,0.103 -0.134,0.171 -0.243,0.171c-0.109,0 -0.205,-0.068 -0.242,-0.171l-0.211,-0.65c-0.132,-0.402 -0.447,-0.718 -0.848,-0.852l-0.651,-0.211c-0.102,-0.036 -0.171,-0.133 -0.171,-0.242c0,-0.109 0.069,-0.206 0.171,-0.242l0.651,-0.212c0.395,-0.136 0.704,-0.45 0.835,-0.848l0.211,-0.65c0.036,-0.103 0.134,-0.171 0.243,-0.171l-0.002,-0Zm-14.428,0.093c0.117,-0 0.221,0.074 0.26,0.184l0.227,0.7c0.144,0.431 0.482,0.769 0.913,0.912l0.699,0.228l0.015,0.003c0.11,0.039 0.184,0.144 0.184,0.261c0,0.117 -0.074,0.221 -0.184,0.26l-0.7,0.228c-0.431,0.143 -0.769,0.481 -0.912,0.912l-0.228,0.7c-0.039,0.11 -0.143,0.184 -0.26,0.184c-0.117,-0 -0.222,-0.074 -0.261,-0.184l-0.227,-0.7c-0.142,-0.432 -0.481,-0.772 -0.913,-0.916l-0.699,-0.227c-0.111,-0.039 -0.184,-0.144 -0.184,-0.261c-0,-0.117 0.073,-0.221 0.184,-0.26l0.699,-0.228c0.426,-0.147 0.759,-0.484 0.899,-0.912l0.227,-0.7c0.039,-0.11 0.144,-0.184 0.261,-0.184l-0,-0Z" />
    <path
      fill="currentColor"
      d="M 171.60352 49.974609 A 1.3333 1.3333 0 0 0 170.27148 51.308594 L 170.27148 62.431641 C 170.27148 64.087641 170.45108 64.644281 170.95508 65.238281 C 171.3333 65.67702 171.97921 65.912776 173.0625 65.998047 C 173.4292 66.026917 173.79303 65.739828 173.875 65.380859 L 174.17578 64.070312 C 174.21678 63.890856 174.12192 63.664558 173.98047 63.546875 C 173.47483 63.126147 173.42187 62.700495 173.42188 61.53125 L 173.42188 51.308594 A 1.3333 1.3333 0 0 0 172.08789 49.974609 L 171.60352 49.974609 z M 226.41602 50.761719 C 226.30836 50.759741 226.19743 50.771429 226.08594 50.798828 C 224.13511 51.278237 223.4375 52.609928 223.4375 54.173828 L 223.4375 54.542969 A 0.3333 0.3333 0 0 1 223.10352 54.876953 A 0.7647 0.7647 0 0 0 222.33984 55.640625 L 222.33984 56.810547 A 0.7647 0.7647 0 0 0 223.10352 57.576172 A 0.3333 0.3333 0 0 1 223.4375 57.910156 L 223.4375 64.666016 A 1.3333 1.3333 0 0 0 224.76953 66 L 225.25391 66 A 1.3333 1.3333 0 0 0 226.58789 64.666016 L 226.58789 57.910156 A 0.3333 0.3333 0 0 1 226.91992 57.576172 L 227.17188 57.576172 A 0.7647 0.7647 0 0 0 227.9375 56.810547 L 227.9375 55.640625 A 0.7647 0.7647 0 0 0 227.17188 54.876953 L 226.91992 54.876953 A 0.3333 0.3333 0 0 1 226.58789 54.542969 L 226.58789 54.353516 C 226.58789 54.084971 226.68139 53.86526 226.96289 53.71875 C 227.44907 53.465692 227.90656 53.07836 227.86914 52.527344 L 227.85156 52.273438 C 227.79696 51.469857 227.1696 50.775563 226.41602 50.761719 z M 79.025391 51.113281 A 1.3333 1.3333 0 0 0 77.693359 52.445312 L 77.693359 53.001953 A 1.3333 1.3333 0 0 0 79.025391 54.335938 L 79.507812 54.335938 A 1.3333 1.3333 0 0 0 80.841797 53.001953 L 80.841797 52.445312 A 1.3333 1.3333 0 0 0 79.507812 51.113281 L 79.025391 51.113281 z M 197.89844 51.113281 A 1.3333 1.3333 0 0 0 196.56641 52.445312 L 196.56641 53.001953 A 1.3333 1.3333 0 0 0 197.89844 54.335938 L 198.38281 54.335938 A 1.3333 1.3333 0 0 0 199.71484 53.001953 L 199.71484 52.445312 A 1.3333 1.3333 0 0 0 198.38281 51.113281 L 197.89844 51.113281 z M 255.74414 54.353516 C 252.14414 54.353516 250.01953 56.424391 250.01953 60.150391 C 250.01953 64.056391 252.48598 66 255.83398 66 C 257.60507 66 258.84242 65.579911 259.79492 64.78125 C 260.49794 64.191769 260.27788 63.111588 259.51953 62.589844 L 259.4668 62.552734 C 259.0118 62.239694 258.40761 62.385397 257.97656 62.726562 C 257.4513 63.142305 256.76354 63.390625 255.92383 63.390625 C 254.57383 63.390625 253.44045 62.580844 253.31445 61.464844 L 253.31445 61.392578 L 259.66602 61.392578 A 1.3333 1.3333 0 0 0 261 60.058594 L 261 60.023438 C 261 56.855438 259.36214 54.353516 255.74414 54.353516 z M 17.777344 54.642578 A 1.3333 1.3333 0 0 0 16.443359 55.974609 L 16.443359 61.787109 C 16.443359 64.523109 17.829078 66 20.205078 66 C 21.465078 66 22.474891 65.730875 23.212891 65.046875 A 0.72 0.72 0 0 0 23.931641 65.765625 L 24.939453 65.765625 A 1.3333 1.3333 0 0 0 26.271484 64.433594 L 26.271484 55.974609 A 1.3333 1.3333 0 0 0 24.939453 54.642578 L 24.544922 54.642578 A 1.3333 1.3333 0 0 0 23.212891 55.974609 L 23.212891 60.978516 C 23.212891 62.382516 22.384156 63.300781 21.160156 63.300781 C 20.134156 63.300781 19.503906 62.706891 19.503906 61.212891 L 19.503906 55.974609 A 1.3333 1.3333 0 0 0 18.169922 54.642578 L 17.777344 54.642578 z M 50.767578 54.785156 A 1.3333 1.3333 0 0 0 49.435547 56.119141 L 49.435547 64.666016 A 1.3333 1.3333 0 0 0 50.767578 66 L 51.072266 66 A 1.3333 1.3333 0 0 0 52.404297 64.666016 L 52.404297 59.808594 C 52.404297 59.061402 52.846333 58.384941 54.087891 58.033203 C 54.618712 57.88282 55.051755 57.399484 55.029297 56.847656 L 55.011719 56.416016 C 54.974289 55.496285 54.165316 54.7151 53.310547 55.044922 C 52.921315 55.195112 52.615073 55.396744 52.404297 55.632812 A 0.846 0.846 0 0 0 51.558594 54.785156 L 50.767578 54.785156 z M 79.060547 55.595703 A 1.3333 1.3333 0 0 0 77.728516 56.927734 L 77.728516 64.666016 A 1.3333 1.3333 0 0 0 79.060547 66 L 79.472656 66 A 1.3333 1.3333 0 0 0 80.806641 64.666016 L 80.806641 56.927734 A 1.3333 1.3333 0 0 0 79.472656 55.595703 L 79.060547 55.595703 z M 197.93555 55.595703 A 1.3333 1.3333 0 0 0 196.60156 56.927734 L 196.60156 64.666016 A 1.3333 1.3333 0 0 0 197.93555 66 L 198.34766 66 A 1.3333 1.3333 0 0 0 199.67969 64.666016 L 199.67969 56.927734 A 1.3333 1.3333 0 0 0 198.34766 55.595703 L 197.93555 55.595703 z M 255.85156 56.964844 C 257.43556 56.964844 258.08398 57.91825 258.08398 58.65625 L 258.08398 58.78125 L 253.4043 58.78125 L 253.4043 58.673828 C 253.4043 57.953828 254.17756 56.964844 255.85156 56.964844 z " />
  </symbol>
  <use xlink:href="#logo-symbol-wordmark"/>
</svg>
