<?xml version="1.0" encoding="UTF-8" standalone="no"?><!DOCTYPE svg PUBLIC "-//W3C//DTD SVG 1.1//EN" "http://www.w3.org/Graphics/SVG/1.1/DTD/svg11.dtd"><svg width="100%" height="100%" viewBox="0 0 460 460" version="1.1" xmlns="http://www.w3.org/2000/svg" xmlns:xlink="http://www.w3.org/1999/xlink" xml:space="preserve" xmlns:serif="http://www.serif.com/" style="fill-rule:evenodd;clip-rule:evenodd;stroke-linejoin:round;stroke-miterlimit:2;"><path d="M230,0c-126.174,0 -230,103.826 -230,230c-0,-0 -0,0 -0,0c-0,126.175 103.825,230 230,230c-0,0 0,0 0,0c126.175,0 230,-103.825 230,-230c0,0 0,-0 0,-0c0,-126.175 -103.825,-230 -230,-230c0,-0 -0,-0 -0,0Zm-68.035,52.011c1.336,-0 2.526,0.842 2.971,2.102l2.592,7.976c1.635,4.916 5.492,8.773 10.408,10.408l7.975,2.592l0.159,0.04c1.26,0.444 2.102,1.635 2.102,2.971c0,1.335 -0.842,2.526 -2.102,2.97l-7.974,2.592c-4.917,1.634 -8.775,5.493 -10.409,10.409l-2.592,7.974c-0.444,1.26 -1.635,2.102 -2.97,2.102c-1.336,0 -2.527,-0.842 -2.971,-2.102l-2.593,-7.974c-1.624,-4.932 -5.482,-8.806 -10.408,-10.449l-7.974,-2.591c-1.26,-0.445 -2.104,-1.635 -2.104,-2.971c0,-1.336 0.844,-2.526 2.104,-2.971l7.974,-2.592c4.856,-1.677 8.647,-5.527 10.248,-10.408l2.593,-7.976c0.445,-1.26 1.635,-2.102 2.971,-2.102Zm152.078,13.236c1.615,0 3.054,1.019 3.591,2.542l3.133,9.64c1.976,5.942 6.638,10.604 12.58,12.58l9.64,3.133l0.194,0.048c1.522,0.538 2.541,1.976 2.541,3.591c0,1.614 -1.019,3.054 -2.541,3.592l-9.64,3.133c-5.943,1.975 -10.607,6.637 -12.582,12.58l-3.132,9.64c-0.537,1.523 -1.977,2.542 -3.592,2.542c-1.614,-0 -3.053,-1.019 -3.59,-2.542l-3.133,-9.64c-1.963,-5.961 -6.628,-10.643 -12.582,-12.628l-9.64,-3.134c-1.523,-0.537 -2.54,-1.975 -2.54,-3.59c-0,-1.615 1.017,-3.055 2.54,-3.592l9.64,-3.133c5.869,-2.027 10.453,-6.681 12.388,-12.58l3.134,-9.64c0.537,-1.523 1.977,-2.542 3.591,-2.542Zm-84.09,18.845c12.565,0 23.508,9.351 30.864,24.132l0.007,0.013l24.55,49.099c0.008,0.018 0.017,0.036 0.026,0.054c1.864,3.807 9.999,9.831 14.306,10.551l44.507,7.395c0.002,0 0.003,0.001 0.005,0.001c15.878,2.647 27.801,10.315 31.596,22.124c3.794,11.803 -1.445,24.978 -12.876,36.34l-0.017,0.019l-3.842,3.842c-1.406,1.406 -3.315,2.197 -5.304,2.197c-1.988,-0 -3.897,-0.791 -5.303,-2.197c-1.407,-1.406 -2.198,-3.315 -2.198,-5.304c0,-1.989 0.791,-3.898 2.198,-5.304l3.858,-3.859c0.006,-0.006 0.013,-0.011 0.019,-0.017c9.066,-9.005 10.726,-16.332 9.185,-21.126c-1.541,-4.794 -7.197,-9.822 -19.779,-11.92l-44.507,-7.394c-0.001,-0 -0.002,-0 -0.003,-0c-10.763,-1.794 -20.484,-8.883 -25.316,-18.749l-24.529,-49.056c-0.002,-0.005 -0.004,-0.011 -0.007,-0.016c-5.898,-11.859 -12.465,-15.826 -17.44,-15.826c-4.973,-0 -11.588,3.987 -17.551,15.842l-0.001,0.004l-0.006,0.011l-24.521,49.043c-4.832,9.865 -14.492,16.934 -25.153,18.744c-0.01,0.001 -0.019,0.002 -0.028,0.003l-44.508,7.394c-12.58,2.098 -18.188,7.108 -19.72,11.907c-1.532,4.798 0.142,12.152 9.147,21.156l34.601,34.601c8.301,8.302 11.822,20.809 9.269,32.198c-0.003,0.016 -0.007,0.033 -0.011,0.049l-1.596,6.904c-0.783,3.39 -3.828,5.811 -7.307,5.811c-0.569,0 -1.136,-0.065 -1.691,-0.193c-3.39,-0.784 -5.811,-3.828 -5.811,-7.307c0,-0.569 0.065,-1.136 0.193,-1.69l1.587,-6.856c1.075,-4.796 -1.821,-14.891 -5.24,-18.31l-34.603,-34.601c-11.365,-11.366 -16.597,-24.522 -12.827,-36.327c3.769,-11.804 15.668,-19.49 31.548,-22.137c0.002,-0 0.003,-0.001 0.005,-0.001l44.479,-7.39c4.129,-0.701 12.33,-6.748 14.195,-10.556c0.009,-0.018 0.017,-0.036 0.026,-0.054l24.557,-49.112c0.002,-0.004 0.004,-0.009 0.006,-0.013c7.429,-14.781 18.391,-24.119 30.961,-24.119Zm-143.126,23.271c0.932,-0 1.763,0.587 2.073,1.466l1.808,5.565c1.14,3.43 3.831,6.121 7.261,7.261l5.565,1.809l0.111,0.028c0.879,0.31 1.466,1.141 1.466,2.073c0,0.932 -0.587,1.763 -1.466,2.073l-5.565,1.807c-3.43,1.141 -6.121,3.832 -7.261,7.262l-1.808,5.564c-0.31,0.879 -1.141,1.467 -2.073,1.467c-0.932,-0 -1.762,-0.588 -2.072,-1.467l-1.809,-5.564c-1.133,-3.441 -3.825,-6.144 -7.262,-7.29l-5.565,-1.807c-0.878,-0.31 -1.466,-1.141 -1.466,-2.073c0,-0.932 0.588,-1.763 1.466,-2.073l5.565,-1.809c3.388,-1.169 6.033,-3.856 7.15,-7.261l1.809,-5.565c0.31,-0.879 1.141,-1.466 2.073,-1.466Zm54.406,11.68c0.865,0 1.637,0.545 1.925,1.361l1.678,5.167c1.059,3.184 3.557,5.682 6.742,6.741l5.166,1.679l0.103,0.026c0.816,0.288 1.362,1.06 1.362,1.925c-0,0.865 -0.546,1.635 -1.362,1.923l-5.165,1.679c-3.185,1.059 -5.684,3.557 -6.743,6.741l-1.679,5.167c-0.288,0.816 -1.058,1.362 -1.923,1.362c-0.865,-0 -1.637,-0.546 -1.925,-1.362l-1.679,-5.167c-1.051,-3.194 -3.551,-5.702 -6.741,-6.766l-5.166,-1.679c-0.816,-0.288 -1.363,-1.059 -1.363,-1.924c0,-0.866 0.547,-1.637 1.363,-1.925l5.166,-1.679c3.145,-1.086 5.6,-3.58 6.637,-6.741l1.679,-5.167c0.288,-0.816 1.06,-1.361 1.925,-1.361Zm216.302,33.824c17.187,1.897 31.422,5.578 42.444,11.276c11.021,5.698 19.134,13.813 21.915,24.19c2.46,9.181 0.404,19.011 -4.746,28.328c-3.98,7.199 -9.813,14.308 -17.329,21.392l16.425,6.897c3.794,1.592 5.606,6.023 4.014,9.817c-1.167,2.78 -3.901,4.597 -6.916,4.597c-0.997,0 -1.984,-0.199 -2.903,-0.585l-28.488,-11.959c-3.43,-1.44 -5.296,-5.226 -4.349,-8.824l9.599,-36.476c0.864,-3.284 3.857,-5.591 7.253,-5.591c0.644,0 1.286,0.083 1.909,0.247c3.979,1.048 6.391,5.183 5.344,9.161l-3.196,12.147c2.251,-2.811 4.094,-5.519 5.51,-8.082c3.86,-6.981 4.632,-12.534 3.386,-17.187c-1.41,-5.261 -5.701,-10.293 -14.318,-14.748c-8.616,-4.454 -21.252,-7.931 -37.198,-9.691c-3.782,-0.417 -6.678,-3.65 -6.678,-7.455c0,-0.275 0.015,-0.55 0.045,-0.823c0.452,-4.089 4.188,-7.082 8.277,-6.631Zm-310.511,69.045c0.656,-0.013 1.311,0.06 1.947,0.217l30.355,7.487c3.348,0.826 5.716,3.859 5.704,7.308l-0.129,37.752c-0.014,4.105 -3.395,7.475 -7.5,7.475c-0.009,-0 -0.018,-0 -0.026,-0c-4.105,-0.015 -7.474,-3.396 -7.474,-7.5c-0,-0.009 -0,-0.019 -0,-0.028l0.075,-21.776c-5.787,5.538 -10.179,10.856 -13.109,15.716c-4.611,7.648 -5.612,13.728 -4.273,18.724c1.606,5.996 6.845,11.502 17.017,16.094c10.172,4.591 24.797,7.802 42.466,9.066c35.338,2.527 82.795,-2.55 133.107,-16.031c40.251,-10.786 78.142,-25.917 107.402,-42.774c1.139,-0.656 2.431,-1.002 3.746,-1.002c2.678,0 5.161,1.435 6.498,3.756c2.054,3.565 0.81,8.189 -2.755,10.242c-30.739,17.709 -69.651,33.184 -111.009,44.266c-51.667,13.845 -100.37,19.201 -138.06,16.505c-18.845,-1.348 -34.952,-4.663 -47.565,-10.357c-12.613,-5.693 -22.214,-14.23 -25.336,-25.882c-2.641,-9.856 -0.086,-20.398 5.916,-30.353c4.103,-6.804 9.864,-13.539 17.107,-20.241l-15.749,-3.885c-3.339,-0.823 -5.705,-3.843 -5.705,-7.282c-0,-0.605 0.073,-1.208 0.218,-1.796c0.811,-3.285 3.749,-5.634 7.132,-5.701Zm338.662,55.587c0.97,-0 1.835,0.612 2.158,1.527l1.884,5.794c1.187,3.571 3.988,6.374 7.56,7.561l5.795,1.883l0.115,0.029c0.915,0.323 1.527,1.189 1.527,2.159c-0,0.971 -0.612,1.835 -1.527,2.158l-5.793,1.882c-3.572,1.187 -6.374,3.99 -7.562,7.562l-1.884,5.795c-0.322,0.915 -1.187,1.526 -2.157,1.526c-0.971,0 -1.835,-0.611 -2.158,-1.526l-1.884,-5.795c-1.179,-3.583 -3.983,-6.396 -7.561,-7.59l-5.794,-1.883c-0.915,-0.323 -1.526,-1.188 -1.526,-2.158c-0,-0.971 0.611,-1.836 1.526,-2.159l5.794,-1.883c3.527,-1.218 6.282,-4.016 7.446,-7.561l1.883,-5.794c0.323,-0.915 1.188,-1.527 2.158,-1.527Zm-64.682,20.723c2.987,0.498 5.392,2.758 6.074,5.708l5.912,25.566c0.001,0.002 0.002,0.004 0.003,0.006c2.118,9.193 2.615,17.316 1.302,24.422c-1.313,7.105 -4.674,13.372 -10.106,17.332c-5.432,3.96 -12.422,5.244 -19.597,4.336c-7.174,-0.909 -14.776,-3.846 -22.907,-8.649c-0.002,-0 -0.004,-0.001 -0.006,-0.001l-41.717,-24.696c-0.001,-0 -0.001,-0.001 -0.002,-0.001c-4.423,-2.622 -15.389,-2.667 -20.025,0.026l-41.674,24.671l0.006,-0.006c-13.644,8.097 -26.213,11.234 -36.855,7.273c-10.642,-3.961 -16.452,-15.35 -16.471,-28.57c-0,-0.004 -0,-0.008 -0,-0.012c-0,-4.111 3.38,-7.495 7.491,-7.5c4.113,-0.005 7.502,3.375 7.509,7.488c0.014,9.522 2.638,13.023 6.703,14.536c4.065,1.513 12.478,0.705 23.969,-6.114c0.002,-0.001 0.004,-0.002 0.006,-0.003l41.719,-24.696c0.016,-0.01 0.032,-0.02 0.048,-0.029c10.713,-6.233 24.575,-6.276 35.218,0.029l0.003,0.001l41.707,24.69c6.868,4.057 12.769,6.125 17.162,6.681c4.393,0.557 7.036,-0.234 8.877,-1.576c1.841,-1.342 3.391,-3.601 4.192,-7.936c0.801,-4.334 0.618,-10.565 -1.169,-18.321l-5.913,-25.566c-0.128,-0.555 -0.193,-1.122 -0.193,-1.691c-0,-3.479 2.421,-6.524 5.811,-7.308c0.959,-0.221 1.952,-0.252 2.923,-0.09Zm41.608,37.027c0.74,-0 1.399,0.466 1.645,1.164l1.435,4.418c0.906,2.723 3.042,4.859 5.765,5.764l4.418,1.436l0.087,0.022c0.698,0.246 1.165,0.905 1.165,1.645c-0,0.74 -0.467,1.4 -1.165,1.646l-4.418,1.436c-2.722,0.905 -4.859,3.041 -5.764,5.764l-1.435,4.416c-0.246,0.698 -0.905,1.165 -1.645,1.165c-0.74,-0 -1.399,-0.467 -1.645,-1.165l-1.436,-4.416c-0.899,-2.731 -3.038,-4.878 -5.765,-5.788l-4.417,-1.435c-0.698,-0.246 -1.165,-0.905 -1.165,-1.645c0,-0.74 0.467,-1.399 1.165,-1.645l4.417,-1.436c2.689,-0.928 4.789,-3.061 5.676,-5.764l1.435,-4.418c0.246,-0.698 0.907,-1.164 1.647,-1.164Zm-265.396,11.922c0.605,-0 1.143,0.381 1.345,0.952l1.174,3.612c0.741,2.227 2.487,3.975 4.714,4.716l3.613,1.173l0.073,0.018c0.57,0.201 0.952,0.741 0.952,1.346c-0,0.605 -0.382,1.145 -0.952,1.346l-3.614,1.173c-2.227,0.741 -3.974,2.487 -4.714,4.714l-1.173,3.612c-0.202,0.571 -0.741,0.953 -1.346,0.953c-0.605,-0 -1.145,-0.382 -1.347,-0.953l-1.173,-3.612c-0.735,-2.233 -2.483,-3.987 -4.714,-4.731l-3.612,-1.175c-0.571,-0.201 -0.952,-0.74 -0.952,-1.345c-0,-0.605 0.381,-1.145 0.952,-1.346l3.612,-1.173c2.199,-0.76 3.917,-2.505 4.642,-4.716l1.174,-3.612c0.201,-0.571 0.741,-0.952 1.346,-0.952Zm128.953,11.994c1.115,0 2.109,0.704 2.48,1.755l2.162,6.655c1.364,4.102 4.583,7.321 8.685,8.685l6.655,2.162l0.133,0.034c1.051,0.37 1.755,1.363 1.755,2.478c0,1.115 -0.704,2.109 -1.755,2.48l-6.655,2.162c-4.102,1.364 -7.321,4.583 -8.685,8.685l-2.162,6.655c-0.371,1.051 -1.365,1.755 -2.48,1.755c-1.114,-0 -2.107,-0.704 -2.478,-1.755l-2.164,-6.655c-1.355,-4.115 -4.575,-7.348 -8.685,-8.719l-6.655,-2.162c-1.051,-0.37 -1.753,-1.365 -1.753,-2.48c-0,-1.114 0.702,-2.107 1.753,-2.478l6.655,-2.162c4.052,-1.399 7.216,-4.613 8.552,-8.685l2.163,-6.655c0.371,-1.051 1.364,-1.755 2.479,-1.755Zm54.845,30.048c0.759,0 1.435,0.48 1.688,1.196l1.472,4.53c0.928,2.793 3.12,4.984 5.913,5.913l4.531,1.473l0.091,0.022c0.716,0.253 1.194,0.929 1.194,1.688c-0,0.759 -0.478,1.436 -1.194,1.689l-4.532,1.472c-2.793,0.928 -4.984,3.119 -5.912,5.912l-1.473,4.532c-0.252,0.716 -0.93,1.194 -1.688,1.194c-0.759,-0 -1.436,-0.478 -1.688,-1.194l-1.472,-4.532c-0.923,-2.802 -3.116,-5.003 -5.914,-5.936l-4.53,-1.472c-0.716,-0.252 -1.194,-0.928 -1.194,-1.687c-0,-0.759 0.478,-1.435 1.194,-1.688l4.53,-1.473c2.759,-0.953 4.913,-3.14 5.823,-5.913l1.472,-4.53c0.253,-0.716 0.93,-1.196 1.689,-1.196Zm-100.564,0.651c0.816,-0 1.543,0.514 1.815,1.284l1.585,4.875c0.998,3.005 3.355,5.362 6.36,6.361l4.875,1.585l0.097,0.025c0.77,0.271 1.286,0.998 1.286,1.815c-0,0.816 -0.516,1.544 -1.286,1.816l-4.874,1.584c-3.005,0.998 -5.363,3.357 -6.362,6.361l-1.583,4.874c-0.272,0.77 -1,1.285 -1.817,1.285c-0.816,-0 -1.543,-0.515 -1.815,-1.285l-1.585,-4.874c-0.992,-3.014 -3.35,-5.383 -6.36,-6.386l-4.875,-1.584c-0.77,-0.272 -1.285,-1 -1.285,-1.816c0,-0.817 0.515,-1.544 1.285,-1.815l4.875,-1.585c2.968,-1.025 5.285,-3.378 6.264,-6.361l1.583,-4.875c0.272,-0.77 1,-1.284 1.817,-1.284Z" style="fill-rule:nonzero;"/></svg>