<svg
  width="65pt"
  height="65pt"
  viewBox="0 0 460 460"
  xmlns="http://www.w3.org/2000/svg">
  <path
    fill="none"
    stroke="#6060ff"
    stroke-width="15"
    stroke-linecap="round"
    stroke-linejoin="round"
    d="m 47.174926,229.41 30.354914,7.48771 -0.12905,37.75186" />
  <path
    fill="none"
    stroke="#6060ff"
    stroke-width="15"
    stroke-linecap="round"
    stroke-linejoin="round"
    d="M 356.33068,260.14062 A 66.163948,191.16397 75 0 1 247.12449,303.66075 66.163948,191.16397 75 0 1 45.349782,289.22816 66.163948,191.16397 75 0 1 76.713263,237.21051" />
  <path
    fill="none"
    stroke="#6060ff"
    stroke-width="15"
    stroke-linecap="round"
    stroke-linejoin="round"
    d="m 394.45367,203.42885 -9.59907,36.47675 28.48723,11.95916" />
  <path
    fill="none"
    stroke="#6060ff"
    stroke-width="15"
    stroke-linecap="round"
    stroke-linejoin="round"
    d="m 356.71247,160.3215 a 66.163948,191.16397 75 0 1 57.93774,29.95291 v 0 a 66.163948,191.16397 75 0 1 -26.67563,48.25793" />
  <path
    fill="none"
    stroke="#fec700"
    stroke-width="15"
    stroke-linecap="round"
    stroke-linejoin="round"
    d="m 142.56748,295.25733 1.59664,-6.90378 c 1.8138,-8.09231 -1.39522,-19.39363 -7.25517,-25.25358 l -34.60159,-34.6016 C 81.937062,208.12808 88.494623,187.47888 116.95723,182.73511 l 44.50769,-7.39469 c 7.3947,-1.2557 16.32414,-7.81312 19.67268,-14.64987 l 24.55639,-49.11195 c 13.39417,-26.648805 35.15969,-26.648805 48.41433,0 v 0 l 24.55597,49.11195 c 3.34854,6.83675 12.27799,13.39417 19.8122,14.64987 l 44.5077,7.39469 c 28.4626,4.74377 35.15969,25.39297 14.64987,45.76326 l -3.85975,3.85976" />
  <path
    fill="none"
    stroke="#fec700"
    stroke-width="15"
    stroke-linecap="round"
    stroke-linejoin="round"
    d="m 319.77044,305.61972 5.91295,25.56726 c 7.81327,33.90398 -10.18514,47.0191 -40.18249,29.29974 l -41.71725,-24.6955 c -7.53422,-4.46472 -19.95172,-4.46472 -27.62547,0 l -41.71766,24.6955 c -25.13551,14.91686 -41.96519,7.88263 -41.99856,-14.85969" />
  <path
    fill="#7ea7cf"
    d="m 103.53337,123.46377 -5.564317,-1.8084 c -3.42999,-1.1402 -6.12124,-3.83144 -7.26144,-7.26143 l -1.8084,-5.56432 c -0.31005,-0.8789 -1.14072,-1.46669 -2.07271,-1.46669 -0.93199,0 -1.76264,0.58779 -2.07271,1.46669 l -1.8084,5.56432 c -1.1172,3.40513 -3.76268,6.09177 -7.15014,7.26142 l -5.56432,1.80841 c -0.8789,0.31006 -1.46669,1.14072 -1.46669,2.0727 0,0.93199 0.58779,1.76265 1.46669,2.07271 l 5.56432,1.80841 c 3.43625,1.14591 6.12866,3.84864 7.26143,7.28925 l 1.8084,5.56432 c 0.31006,0.8789 1.14072,1.46669 2.07271,1.46669 0.93199,0 1.76265,-0.58779 2.07271,-1.46669 l 1.8084,-5.56432 c 1.1402,-3.42999 3.83145,-6.12123 7.26144,-7.26143 l 5.564307,-1.80841 c 0.8789,-0.31006 1.4667,-1.14071 1.4667,-2.0727 0,-0.93199 -0.5878,-1.76265 -1.4667,-2.07271 z" />
  <path
    fill="#7ea7cf"
    d="m 156.74354,133.99106 -5.16588,-1.6789 c -3.18439,-1.05856 -5.68292,-3.55711 -6.74148,-6.74148 l -1.67891,-5.16589 c -0.28785,-0.81597 -1.05904,-1.36167 -1.92429,-1.36167 -0.86526,0 -1.63643,0.5457 -1.9243,1.36167 l -1.6789,5.16589 c -1.03722,3.1613 -3.49326,5.65557 -6.63817,6.74148 l -5.16589,1.6789 c -0.81596,0.28787 -1.36167,1.05904 -1.36167,1.9243 0,0.86525 0.54571,1.63644 1.36167,1.92429 l 5.16589,1.67892 c 3.19021,1.06385 5.68983,3.57306 6.74148,6.76729 l 1.67891,5.1659 c 0.28786,0.81597 1.05904,1.36167 1.92429,1.36167 0.86525,0 1.63644,-0.5457 1.9243,-1.36167 l 1.67891,-5.1659 c 1.05855,-3.18437 3.5571,-5.68291 6.74149,-6.74147 l 5.16587,-1.67892 c 0.81597,-0.28785 1.36168,-1.05903 1.36168,-1.92428 0,-0.86525 -0.54571,-1.63644 -1.36168,-1.9243 z" />
  <path
    fill="#7ea7cf"
    d="m 185.91115,75.088702 -7.97545,-2.592024 c -4.91628,-1.63427 -8.77371,-5.491695 -10.40798,-10.407973 l -2.59202,-7.975457 c -0.44441,-1.259749 -1.63502,-2.102246 -2.97086,-2.102246 -1.33584,0 -2.52644,0.842497 -2.97086,2.102246 l -2.59202,7.975457 c -1.60131,4.880647 -5.39313,8.731482 -10.24846,10.407973 l -7.97546,2.592024 c -1.25975,0.444415 -2.10225,1.635017 -2.10225,2.970858 0,1.335841 0.8425,2.526443 2.10225,2.970858 l 7.97546,2.592024 c 4.92526,1.642461 8.78435,5.516339 10.40797,10.44785 l 2.59202,7.975458 c 0.44442,1.25975 1.63502,2.10225 2.97086,2.10225 1.33584,0 2.52644,-0.8425 2.97086,-2.10225 l 2.59202,-7.975458 c 1.63427,-4.916278 5.4917,-8.773703 10.40798,-10.407973 l 7.97545,-2.592024 c 1.25975,-0.444415 2.10225,-1.635017 2.10225,-2.970858 0,-1.33584 -0.8425,-2.526443 -2.10225,-2.970858 z" />
  <path
    fill="#7ea7cf"
    d="m 342.98775,93.142219 -9.64029,-3.133083 c -5.94253,-1.97542 -10.60516,-6.638064 -12.58058,-12.580588 l -3.1331,-9.640292 c -0.53717,-1.522716 -1.97632,-2.541079 -3.591,-2.541079 -1.61469,0 -3.05382,1.018363 -3.59102,2.541079 l -3.13308,9.640292 c -1.93559,5.899456 -6.51893,10.554135 -12.38779,12.580588 l -9.64029,3.133083 c -1.52271,0.5372 -2.54108,1.976333 -2.54108,3.591018 0,1.614685 1.01837,3.053818 2.54108,3.591023 l 9.64029,3.13308 c 5.9534,1.98531 10.61805,6.66785 12.58059,12.62878 l 3.13308,9.6403 c 0.5372,1.52271 1.97634,2.54106 3.59102,2.54106 1.61468,0 3.05382,-1.01835 3.59102,-2.54106 l 3.13308,-9.6403 c 1.97542,-5.94253 6.63807,-10.60517 12.5806,-12.58057 l 9.64028,-3.13312 c 1.52271,-0.537167 2.54108,-1.9763 2.54108,-3.590985 0,-1.614699 -1.01837,-3.053832 -2.54108,-3.591017 z" />
  <path
    fill="#7ea7cf"
    d="m 403.08221,294.26437 -5.79394,-1.88303 c -3.57155,-1.18725 -6.37385,-3.98955 -7.56111,-7.5611 l -1.88303,-5.79395 c -0.32285,-0.91517 -1.1878,-1.52723 -2.15825,-1.52723 -0.97045,0 -1.83538,0.61206 -2.15825,1.52723 l -1.88302,5.79395 c -1.16332,3.54566 -3.91797,6.34318 -7.44524,7.5611 l -5.79395,1.88303 c -0.91517,0.32286 -1.52722,1.1878 -1.52722,2.15826 0,0.97045 0.61205,1.83538 1.52722,2.15824 l 5.79395,1.88304 c 3.57808,1.19319 6.3816,4.00747 7.56111,7.59007 l 1.88303,5.79395 c 0.32286,0.91518 1.1878,1.52722 2.15825,1.52722 0.97045,0 1.83539,-0.61204 2.15825,-1.52722 l 1.88303,-5.79395 c 1.18725,-3.57155 3.98957,-6.37385 7.56111,-7.5611 l 5.79395,-1.88304 c 0.91517,-0.32285 1.52722,-1.18779 1.52722,-2.15824 0,-0.97045 -0.61205,-1.83539 -1.52722,-2.15825 z" />
  <path
    fill="#7ea7cf"
    d="m 375.87381,348.03066 -4.4172,-1.4356 c -2.72289,-0.90513 -4.85931,-3.04157 -5.76446,-5.76446 l -1.43559,-4.4172 c -0.24614,-0.69772 -0.90556,-1.16434 -1.64541,-1.16434 -0.73986,0 -1.39927,0.46662 -1.64542,1.16434 l -1.43558,4.4172 c -0.8869,2.70316 -2.98699,4.83595 -5.67612,5.76446 l -4.41721,1.4356 c -0.69771,0.24613 -1.16433,0.90555 -1.16433,1.6454 0,0.73987 0.46662,1.39927 1.16433,1.64542 l 4.41721,1.43558 c 2.72786,0.90968 4.86522,3.05524 5.76446,5.78655 l 1.43559,4.41721 c 0.24614,0.69772 0.90556,1.16433 1.64541,1.16433 0.73986,0 1.39927,-0.46661 1.64541,-1.16433 l 1.43559,-4.41721 c 0.90514,-2.72288 3.04158,-4.85931 5.76447,-5.76445 l 4.4172,-1.4356 c 0.69771,-0.24613 1.16433,-0.90556 1.16433,-1.6454 0,-0.73986 -0.46662,-1.39927 -1.16433,-1.64543 z" />
  <path
    fill="#7ea7cf"
    d="m 294.61768,402.32483 -4.53097,-1.47257 c -2.79301,-0.92845 -4.98446,-3.11991 -5.91292,-5.91292 l -1.47256,-4.53098 c -0.25247,-0.71568 -0.92888,-1.1943 -1.68779,-1.1943 -0.75891,0 -1.4353,0.47862 -1.68779,1.1943 l -1.47256,4.53098 c -0.90973,2.77276 -3.06392,4.96048 -5.82231,5.91292 l -4.53097,1.47257 c -0.71568,0.25248 -1.19431,0.92887 -1.19431,1.68778 0,0.75891 0.47863,1.43532 1.19431,1.6878 l 4.53097,1.47255 c 2.79813,0.93312 4.99053,3.13392 5.91293,5.93557 l 1.47256,4.53097 c 0.25248,0.71569 0.92888,1.19433 1.68779,1.19433 0.75891,0 1.43531,-0.47864 1.68779,-1.19433 l 1.47256,-4.53097 c 0.92845,-2.79301 3.11992,-4.98446 5.91293,-5.91291 l 4.53097,-1.47257 c 0.71568,-0.25248 1.19431,-0.92888 1.19431,-1.68778 0,-0.75891 -0.47863,-1.43531 -1.19431,-1.68779 z" />
  <path
    fill="#7ea7cf"
    d="m 246.15124,378.42205 -6.65507,-2.1629 c -4.10236,-1.36371 -7.32116,-4.58251 -8.68487,-8.68486 l -2.1629,-6.65508 c -0.37083,-1.05119 -1.36433,-1.75421 -2.47901,-1.75421 -1.11468,0 -2.10817,0.70302 -2.47902,1.75421 l -2.16289,6.65508 c -1.33621,4.07261 -4.50027,7.28593 -8.55177,8.68486 l -6.65507,2.1629 c -1.05119,0.37085 -1.75421,1.36433 -1.75421,2.47902 0,1.11468 0.70302,2.10816 1.75421,2.47901 l 6.65507,2.16289 c 4.10986,1.37054 7.33005,4.60308 8.68487,8.71815 l 2.16289,6.65508 c 0.37085,1.05119 1.36434,1.75419 2.47902,1.75419 1.11468,0 2.10817,-0.703 2.47902,-1.75419 l 2.16289,-6.65508 c 1.36371,-4.10236 4.58252,-7.32117 8.68488,-8.68487 l 6.65506,-2.16291 c 1.05119,-0.37083 1.75421,-1.36432 1.75421,-2.479 0,-1.11469 -0.70302,-2.10818 -1.75421,-2.47901 z" />
  <path
    fill="#7ea7cf"
    d="m 195.08472,403.96858 -4.87445,-1.58418 c -3.00474,-0.99883 -5.36232,-3.35643 -6.36116,-6.36117 l -1.5842,-4.87446 c -0.27161,-0.76994 -0.9993,-1.28485 -1.81574,-1.28485 -0.81644,0 -1.5441,0.51491 -1.81573,1.28485 l -1.58419,4.87446 c -0.9787,2.98298 -3.29619,5.33654 -6.26369,6.36117 l -4.87445,1.58418 c -0.76993,0.27164 -1.28485,0.99931 -1.28485,1.81575 0,0.81644 0.51492,1.54411 1.28485,1.81574 l 4.87445,1.58419 c 3.01025,1.00384 5.36885,3.37149 6.36117,6.38552 l 1.5842,4.87447 c 0.27162,0.76994 0.99929,1.28485 1.81573,1.28485 0.81644,0 1.54412,-0.51491 1.81574,-1.28485 l 1.5842,-4.87447 c 0.99883,-3.00473 3.35642,-5.36232 6.36116,-6.36115 l 4.87446,-1.58421 c 0.76993,-0.27161 1.28485,-0.99929 1.28485,-1.81573 0,-0.81643 -0.51492,-1.54411 -1.28485,-1.81572 z" />
  <path
    fill="#7ea7cf"
    d="m 108.06181,357.62405 -3.61243,-1.17404 c -2.22681,-0.74023 -3.974,-2.48743 -4.714241,-4.71424 l -1.174041,-3.61244 c -0.201293,-0.57061 -0.740576,-0.95221 -1.345637,-0.95221 -0.605062,0 -1.144333,0.3816 -1.345637,0.95221 l -1.174036,3.61244 c -0.725312,2.21066 -2.442796,3.95488 -4.641997,4.71424 l -3.612442,1.17404 c -0.570595,0.20129 -0.952199,0.74058 -0.952199,1.34564 0,0.60505 0.381604,1.14433 0.952199,1.34564 l 3.612442,1.17404 c 2.23088,0.74393 3.978834,2.4986 4.714241,4.73228 l 1.174041,3.61246 c 0.201298,0.5706 0.740576,0.95219 1.345637,0.95219 0.605061,0 1.144339,-0.38159 1.345637,-0.95219 l 1.174041,-3.61246 c 0.740232,-2.2268 2.487442,-3.974 4.714242,-4.71423 l 3.61244,-1.17405 c 0.5706,-0.20129 0.9522,-0.74057 0.9522,-1.34563 0,-0.60506 -0.3816,-1.14434 -0.9522,-1.34563 z" />
</svg>