<?xml version="1.0" encoding="UTF-8" standalone="no"?><!DOCTYPE svg PUBLIC "-//W3C//DTD SVG 1.1//EN" "http://www.w3.org/Graphics/SVG/1.1/DTD/svg11.dtd"><svg width="100%" height="100%" viewBox="0 0 65 65" version="1.1" xmlns="http://www.w3.org/2000/svg" xmlns:xlink="http://www.w3.org/1999/xlink" xml:space="preserve" xmlns:serif="http://www.serif.com/" style="fill-rule:evenodd;clip-rule:evenodd;stroke-linecap:round;stroke-linejoin:round;"><path d="M6.666,32.417l4.289,1.058l-0.018,5.334" style="fill:none;fill-rule:nonzero;stroke:#6060ff;stroke-width:2.12px;"/><path d="M50.351,36.759c-4.238,2.442 -9.666,4.605 -15.431,6.15c-14.314,3.835 -27.184,2.914 -28.512,-2.04c-0.562,-2.098 1.006,-4.698 4.432,-7.35" style="fill:none;fill-rule:nonzero;stroke:#6060ff;stroke-width:2.12px;"/><path d="M55.738,28.745l-1.356,5.155l4.025,1.69" style="fill:none;fill-rule:nonzero;stroke:#6060ff;stroke-width:2.12px;"/><path d="M50.405,22.654c4.681,0.517 7.595,2.023 8.187,4.233c0.524,1.954 -0.8,4.347 -3.77,6.819" style="fill:none;fill-rule:nonzero;stroke:#6060ff;stroke-width:2.12px;"/><path d="M20.145,41.721l0.226,-0.975c0.256,-1.144 -0.197,-2.741 -1.025,-3.569l-4.89,-4.889c-2.878,-2.879 -1.951,-5.796 2.071,-6.467l6.289,-1.045c1.045,-0.177 2.306,-1.104 2.78,-2.07l3.469,-6.939c1.893,-3.766 4.969,-3.766 6.842,-0l3.469,6.939c0.474,0.966 1.735,1.893 2.8,2.07l6.289,1.045c4.022,0.671 4.968,3.588 2.07,6.467l-0.545,0.545" style="fill:none;fill-rule:nonzero;stroke:#fec700;stroke-width:2.12px;"/><path d="M45.185,43.185l0.835,3.613c1.105,4.791 -1.439,6.644 -5.677,4.14l-5.895,-3.489c-1.065,-0.631 -2.82,-0.631 -3.904,-0l-5.895,3.489c-3.552,2.108 -5.93,1.114 -5.934,-2.099" style="fill:none;fill-rule:nonzero;stroke:#fec700;stroke-width:2.12px;"/><path d="M14.63,17.446l-0.787,-0.256c-0.484,-0.161 -0.865,-0.541 -1.026,-1.026l-0.255,-0.786c-0.044,-0.124 -0.161,-0.207 -0.293,-0.207c-0.132,-0 -0.249,0.083 -0.293,0.207l-0.255,0.786c-0.158,0.482 -0.532,0.861 -1.011,1.026l-0.786,0.256c-0.124,0.044 -0.207,0.161 -0.207,0.293c-0,0.132 0.083,0.249 0.207,0.293l0.786,0.255c0.486,0.162 0.866,0.544 1.026,1.03l0.256,0.787c0.044,0.124 0.161,0.207 0.293,0.207c0.131,-0 0.249,-0.083 0.293,-0.207l0.255,-0.787c0.161,-0.484 0.542,-0.865 1.026,-1.026l0.786,-0.255c0.125,-0.044 0.208,-0.162 0.208,-0.293c-0,-0.132 -0.083,-0.249 -0.208,-0.293l-0.015,-0.004Z" style="fill:#7ea7cf;fill-rule:nonzero;"/><path d="M22.149,18.934l-0.73,-0.238c-0.45,-0.149 -0.803,-0.502 -0.953,-0.952l-0.237,-0.73c-0.041,-0.116 -0.15,-0.193 -0.272,-0.193c-0.122,0 -0.231,0.077 -0.272,0.193l-0.237,0.73c-0.147,0.446 -0.494,0.799 -0.938,0.952l-0.73,0.238c-0.116,0.04 -0.193,0.149 -0.193,0.271c0,0.123 0.077,0.232 0.193,0.272l0.73,0.238c0.45,0.15 0.804,0.504 0.952,0.956l0.238,0.73c0.04,0.115 0.149,0.192 0.271,0.192c0.123,0 0.232,-0.077 0.272,-0.192l0.238,-0.73c0.149,-0.45 0.502,-0.803 0.952,-0.953l0.73,-0.237c0.115,-0.041 0.193,-0.15 0.193,-0.272c-0,-0.122 -0.078,-0.231 -0.193,-0.272l-0.014,-0.003Z" style="fill:#7ea7cf;fill-rule:nonzero;"/><path d="M26.27,10.61l-1.127,-0.366c-0.695,-0.231 -1.24,-0.776 -1.471,-1.471l-0.366,-1.127c-0.063,-0.178 -0.231,-0.297 -0.42,-0.297c-0.188,0 -0.357,0.119 -0.419,0.297l-0.367,1.127c-0.226,0.69 -0.762,1.234 -1.448,1.471l-1.127,0.366c-0.178,0.063 -0.297,0.231 -0.297,0.42c0,0.189 0.119,0.357 0.297,0.42l1.127,0.366c0.696,0.232 1.241,0.78 1.471,1.477l0.366,1.127c0.063,0.178 0.231,0.297 0.42,0.297c0.189,-0 0.357,-0.119 0.42,-0.297l0.366,-1.127c0.231,-0.695 0.776,-1.24 1.471,-1.471l1.127,-0.366c0.178,-0.063 0.297,-0.231 0.297,-0.42c-0,-0.189 -0.119,-0.357 -0.297,-0.42l-0.023,-0.006Z" style="fill:#7ea7cf;fill-rule:nonzero;"/><path d="M48.466,13.161l-1.363,-0.442c-0.839,-0.279 -1.498,-0.938 -1.777,-1.778l-0.443,-1.362c-0.076,-0.215 -0.279,-0.359 -0.507,-0.359c-0.229,-0 -0.432,0.144 -0.508,0.359l-0.443,1.362c-0.273,0.834 -0.921,1.491 -1.75,1.778l-1.362,0.442c-0.215,0.076 -0.359,0.28 -0.359,0.508c-0,0.228 0.144,0.431 0.359,0.507l1.362,0.443c0.841,0.281 1.5,0.942 1.778,1.784l0.442,1.363c0.076,0.215 0.28,0.359 0.508,0.359c0.228,-0 0.431,-0.144 0.507,-0.359l0.443,-1.363c0.279,-0.839 0.938,-1.498 1.778,-1.777l1.362,-0.443c0.215,-0.076 0.359,-0.279 0.359,-0.507c-0,-0.229 -0.144,-0.432 -0.359,-0.508l-0.027,-0.007Z" style="fill:#7ea7cf;fill-rule:nonzero;"/><path d="M56.957,41.581l-0.818,-0.266c-0.505,-0.168 -0.901,-0.564 -1.069,-1.069l-0.266,-0.818c-0.046,-0.13 -0.168,-0.216 -0.305,-0.216c-0.137,-0 -0.259,0.086 -0.305,0.216l-0.266,0.818c-0.164,0.501 -0.554,0.897 -1.052,1.069l-0.819,0.266c-0.129,0.045 -0.216,0.168 -0.216,0.305c0,0.137 0.087,0.259 0.216,0.305l0.819,0.266c0.506,0.168 0.902,0.566 1.068,1.072l0.266,0.819c0.046,0.129 0.168,0.216 0.305,0.216c0.138,-0 0.26,-0.087 0.305,-0.216l0.267,-0.819c0.167,-0.504 0.563,-0.9 1.068,-1.068l0.819,-0.266c0.129,-0.046 0.215,-0.168 0.215,-0.305c0,-0.137 -0.086,-0.259 -0.215,-0.305l-0.017,-0.004Z" style="fill:#7ea7cf;fill-rule:nonzero;"/><path d="M53.113,49.178l-0.625,-0.203c-0.384,-0.128 -0.686,-0.429 -0.814,-0.814l-0.203,-0.624c-0.035,-0.099 -0.128,-0.165 -0.232,-0.165c-0.105,0 -0.198,0.066 -0.233,0.165l-0.203,0.624c-0.125,0.382 -0.422,0.683 -0.802,0.814l-0.624,0.203c-0.099,0.035 -0.165,0.128 -0.165,0.233c0,0.104 0.066,0.197 0.165,0.232l0.624,0.203c0.386,0.129 0.688,0.432 0.815,0.818l0.203,0.624c0.034,0.099 0.127,0.164 0.232,0.164c0.105,0 0.198,-0.065 0.233,-0.164l0.202,-0.624c0.128,-0.385 0.43,-0.687 0.815,-0.815l0.624,-0.203c0.099,-0.034 0.165,-0.128 0.165,-0.232c-0,-0.105 -0.066,-0.198 -0.165,-0.233l-0.012,-0.003Z" style="fill:#7ea7cf;fill-rule:nonzero;"/><path d="M41.631,56.85l-0.64,-0.208c-0.395,-0.131 -0.705,-0.441 -0.836,-0.835l-0.208,-0.641c-0.036,-0.101 -0.131,-0.168 -0.239,-0.168c-0.107,-0 -0.202,0.067 -0.238,0.168l-0.208,0.641c-0.129,0.391 -0.433,0.701 -0.823,0.835l-0.64,0.208c-0.101,0.036 -0.169,0.132 -0.169,0.239c0,0.107 0.068,0.203 0.169,0.238l0.64,0.208c0.396,0.132 0.705,0.443 0.836,0.839l0.208,0.64c0.035,0.101 0.131,0.169 0.238,0.169c0.107,0 0.203,-0.068 0.239,-0.169l0.208,-0.64c0.131,-0.395 0.441,-0.704 0.835,-0.835l0.641,-0.209c0.101,-0.035 0.168,-0.131 0.168,-0.238c0,-0.107 -0.067,-0.203 -0.168,-0.239l-0.013,-0.003Z" style="fill:#7ea7cf;fill-rule:nonzero;"/><path d="M34.782,53.473l-0.94,-0.306c-0.58,-0.193 -1.035,-0.647 -1.227,-1.227l-0.306,-0.941c-0.052,-0.148 -0.193,-0.247 -0.35,-0.247c-0.158,-0 -0.298,0.099 -0.351,0.247l-0.305,0.941c-0.189,0.575 -0.636,1.029 -1.209,1.227l-0.94,0.306c-0.149,0.052 -0.248,0.192 -0.248,0.35c0,0.157 0.099,0.298 0.248,0.35l0.94,0.306c0.581,0.194 1.036,0.65 1.228,1.232l0.305,0.94c0.053,0.149 0.193,0.248 0.351,0.248c0.157,0 0.297,-0.099 0.35,-0.248l0.305,-0.94c0.193,-0.58 0.648,-1.035 1.228,-1.227l0.94,-0.306c0.149,-0.052 0.248,-0.193 0.248,-0.35c-0,-0.158 -0.099,-0.298 -0.248,-0.351l-0.019,-0.004Z" style="fill:#7ea7cf;fill-rule:nonzero;"/><path d="M27.566,57.083l-0.688,-0.224c-0.425,-0.141 -0.758,-0.475 -0.899,-0.899l-0.224,-0.689c-0.039,-0.109 -0.141,-0.182 -0.257,-0.182c-0.115,0 -0.218,0.073 -0.256,0.182l-0.224,0.689c-0.138,0.421 -0.466,0.754 -0.885,0.899l-0.689,0.224c-0.109,0.038 -0.182,0.141 -0.182,0.256c0,0.115 0.073,0.218 0.182,0.257l0.689,0.224c0.425,0.141 0.758,0.476 0.899,0.902l0.223,0.689c0.039,0.108 0.142,0.181 0.257,0.181c0.115,0 0.218,-0.073 0.257,-0.181l0.223,-0.689c0.142,-0.425 0.475,-0.758 0.899,-0.899l0.689,-0.224c0.109,-0.038 0.182,-0.141 0.182,-0.256c-0,-0.116 -0.073,-0.219 -0.182,-0.257l-0.014,-0.003Z" style="fill:#7ea7cf;fill-rule:nonzero;"/><path d="M15.27,50.534l-0.511,-0.166c-0.315,-0.105 -0.561,-0.352 -0.666,-0.666l-0.166,-0.511c-0.028,-0.08 -0.105,-0.134 -0.19,-0.134c-0.086,-0 -0.162,0.054 -0.19,0.134l-0.166,0.511c-0.103,0.312 -0.345,0.559 -0.656,0.666l-0.51,0.166c-0.081,0.028 -0.135,0.104 -0.135,0.19c-0,0.085 0.054,0.162 0.135,0.19l0.51,0.166c0.315,0.105 0.562,0.353 0.666,0.669l0.166,0.51c0.028,0.081 0.105,0.135 0.19,0.135c0.086,-0 0.162,-0.054 0.19,-0.135l0.166,-0.51c0.105,-0.315 0.352,-0.562 0.666,-0.666l0.511,-0.166c0.08,-0.029 0.134,-0.105 0.134,-0.19c0,-0.086 -0.054,-0.162 -0.134,-0.191l-0.01,-0.002Z" style="fill:#7ea7cf;fill-rule:nonzero;"/></svg>