<?xml version="1.0" encoding="UTF-8" standalone="no"?><!DOCTYPE svg PUBLIC "-//W3C//DTD SVG 1.1//EN" "http://www.w3.org/Graphics/SVG/1.1/DTD/svg11.dtd"><svg width="100%" height="100%" viewBox="0 0 261 66" version="1.1" xmlns="http://www.w3.org/2000/svg" xmlns:xlink="http://www.w3.org/1999/xlink" xml:space="preserve" xmlns:serif="http://www.serif.com/" style="fill-rule:evenodd;clip-rule:evenodd;stroke-linejoin:round;stroke-miterlimit:2;"><g id="logo-symbol-wordmark"><path d="M21.384,0.108c15.444,0 20.682,4.698 20.682,12.582c-0,7.938 -5.346,12.581 -20.682,12.581c-15.336,0 -20.681,-4.643 -20.681,-12.581c0,-7.884 5.237,-12.582 20.681,-12.582Zm-0,8.371c-8.478,-0 -11.231,1.133 -11.231,4.211c-0,2.97 2.969,4.213 11.231,4.213c8.262,-0 11.232,-1.243 11.232,-4.213c0,-3.078 -2.754,-4.211 -11.232,-4.211Zm-21.384,23.062c0,-2.195 1.806,-4 4,-4l34.715,-0c2.194,-0 4,1.805 4,4l-0,0.909c-0,2.194 -1.806,4 -4,4l-12.417,-0l0,7.178c0,2.194 -1.805,4 -4,4l-1.881,-0c-2.195,-0 -4,-1.806 -4,-4l-0,-7.178l-12.417,-0c-2.194,-0 -4,-1.806 -4,-4l-0,-0.909Zm81.494,-27.541c-0,-2.194 1.805,-4 4,-4l1.72,-0c2.195,-0 4,1.806 4,4l0,38.818c0,2.194 -1.805,4 -4,4l-1.72,-0c-2.195,-0 -4,-1.806 -4,-4l-0,-38.818Zm-32.022,1.08c0,-2.195 1.806,-4 4,-4l17.65,-0c2.194,-0 4,1.805 4,4l-0,18.19c-0,2.194 -1.806,4 -4,4l-11.47,-0c-0.548,-0 -1,0.451 -1,1l0,5.398c0,0.549 0.452,1 1,1l13.63,0c2.195,0 4,1.806 4,4l0,1.181c0,2.194 -1.805,4 -4,4l-20.35,-0c-2.195,-0 -4,-1.806 -4,-4l-0,-17.758c-0,-2.195 1.805,-4 4,-4l11.47,-0c0.549,-0 1,-0.452 1,-1l0,-5.831c0,-0.549 -0.451,-1 -1,-1l-10.93,-0c-2.194,-0 -4,-1.806 -4,-4l0,-1.18Zm151.534,-1.08c0,-2.194 1.806,-4 4,-4l1.719,-0c2.195,-0 4,1.806 4,4l0,26.397c0,2.195 -1.805,4 -4,4l-1.719,0c-2.194,0 -4,-1.805 -4,-4l0,-26.397Zm-18.684,-3.946c7.992,0 14.58,3.348 14.58,15.336c-0,11.61 -6.588,15.337 -14.58,15.337c-7.992,-0 -14.579,-3.727 -14.579,-15.337c-0,-11.988 6.587,-15.336 14.579,-15.336Zm0,9.072c-3.132,-0 -5.184,1.62 -5.184,6.264c0,4.482 2.106,6.265 5.184,6.265c3.078,-0 5.184,-1.783 5.184,-6.265c0,-4.644 -2.052,-6.264 -5.184,-6.264Zm-12.042,27.058c-0,-2.194 1.805,-4 4,-4l1.449,0c2.195,0 4,1.806 4,4l0,1.535c0,0.548 0.452,1 1,1l26.374,-0c2.195,-0 4,1.805 4,4l0,0.639c0,2.195 -1.805,4 -4,4l-32.823,0c-2.195,0 -4,-1.805 -4,-4l-0,-7.174Zm80.838,-32.184c0,-2.194 1.806,-4 4,-4l0.911,-0c2.194,-0 4,1.806 4,4l-0,18.837c-0,2.195 -1.806,4 -4,4l-0.911,0c-2.194,0 -4,-1.805 -4,-4l0,-5.773l-2.376,-0l0,5.773c0,2.195 -1.805,4 -4,4l-0.909,0c-2.194,0 -4,-1.805 -4,-4l0,-18.567c0,-2.195 1.806,-4 4,-4l0.909,-0c2.195,-0 4,1.805 4,4l0,4.154l2.376,0l0,-4.424Zm-28.674,0.541c-0,-2.195 1.805,-4 4,-4l1.504,-0c2.194,-0 4,1.805 4,4l-0,5.503c-0,3.222 0.948,5.11 4.117,6.938c1.434,0.826 2.306,2.611 1.837,4.198c-0.783,2.648 -3.634,4.31 -6.115,3.109c-1.648,-0.798 -3.108,-1.736 -4.32,-2.688c-1.345,1.277 -3.443,2.596 -5.865,3.723c-2.501,1.164 -5.139,-0.404 -5.722,-3.103l-0.037,-0.172c-0.35,-1.62 0.625,-3.419 2.073,-4.222c3.714,-2.057 4.528,-4.161 4.528,-7.783l-0,-5.503Zm17.442,23.755c18.684,0 21.114,4.698 21.114,10.314c0,6.102 -2.43,10.314 -21.114,10.314c-18.684,0 -21.113,-4.212 -21.113,-10.314c-0,-5.616 2.429,-10.314 21.113,-10.314Zm-0,7.83c-10.044,-0 -10.853,0.972 -10.853,2.484c-0,1.512 0.755,2.485 10.853,2.485c10.098,-0 10.854,-0.973 10.854,-2.485c0,-1.512 -0.81,-2.484 -10.854,-2.484Z" fill="currentColor"/><path d="M130.852,2c17.006,0 31,13.994 31,31c0,17.006 -13.994,31 -31,31c-17.006,-0 -31,-13.994 -31,-31c0,-17.006 13.994,-31 31,-31Z" style="fill:#fff;"/><path d="M130.852,0c-18.103,0 -33,14.897 -33,33c-0,-0 -0,-0 -0,0c-0,18.103 14.897,33 33,33c-0,0 -0,0 0,0c18.103,0 33,-14.897 33,-33c0,-0 0,-0 -0,-0c-0,-18.103 -14.897,-33 -33,-33c-0,-0 -0,-0 -0,0Zm-9.762,7.462c0.192,0 0.363,0.121 0.427,0.302l0.372,1.144c0.234,0.706 0.788,1.259 1.493,1.494l1.144,0.372l0.023,0.005c0.181,0.064 0.301,0.235 0.301,0.427c0,0.191 -0.12,0.362 -0.301,0.426l-1.144,0.372c-0.706,0.234 -1.259,0.788 -1.494,1.493l-0.372,1.144c-0.064,0.181 -0.234,0.302 -0.426,0.302c-0.192,-0 -0.362,-0.121 -0.426,-0.302l-0.372,-1.144c-0.233,-0.707 -0.787,-1.263 -1.493,-1.499l-1.145,-0.372c-0.181,-0.064 -0.301,-0.234 -0.301,-0.426c-0,-0.192 0.121,-0.363 0.301,-0.426l1.145,-0.372c0.696,-0.241 1.24,-0.793 1.47,-1.494l0.372,-1.144c0.064,-0.181 0.234,-0.302 0.426,-0.302l0,0Zm21.82,1.9c0.232,-0 0.438,0.146 0.516,0.364l0.449,1.383c0.284,0.853 0.952,1.522 1.805,1.805l1.383,0.45l0.028,0.007c0.219,0.077 0.365,0.283 0.365,0.515c0,0.232 -0.146,0.438 -0.365,0.515l-1.383,0.45c-0.852,0.283 -1.521,0.952 -1.805,1.805l-0.449,1.383c-0.077,0.218 -0.284,0.365 -0.516,0.365c-0.231,-0 -0.438,-0.147 -0.515,-0.365l-0.449,-1.383c-0.282,-0.855 -0.951,-1.527 -1.805,-1.812l-1.384,-0.45c-0.218,-0.077 -0.364,-0.283 -0.364,-0.515c0,-0.231 0.146,-0.438 0.364,-0.515l1.384,-0.45c0.842,-0.29 1.499,-0.958 1.777,-1.805l0.45,-1.383c0.077,-0.218 0.283,-0.364 0.515,-0.364l-0.001,-0Zm-12.065,2.703c1.803,0 3.373,1.342 4.429,3.463l0.001,0.002l3.522,7.044c0.001,0.003 0.002,0.005 0.003,0.008c0.267,0.546 1.434,1.411 2.052,1.514l6.386,1.061c0.001,-0 0.001,0 0.001,0c2.278,0.38 3.989,1.48 4.534,3.174c0.544,1.694 -0.208,3.584 -1.848,5.214l-0.002,0.003l-0.551,0.551c-0.202,0.202 -0.476,0.316 -0.761,0.316c-0.285,-0 -0.559,-0.114 -0.761,-0.316c-0.202,-0.201 -0.315,-0.475 -0.315,-0.761c-0,-0.285 0.113,-0.559 0.315,-0.761l0.554,-0.553c0.001,-0.001 0.002,-0.002 0.003,-0.003c1.3,-1.292 1.538,-2.343 1.317,-3.031c-0.221,-0.688 -1.032,-1.409 -2.837,-1.71l-6.386,-1.061c-0,-0 -0.001,-0 -0.001,-0c-1.544,-0.257 -2.939,-1.275 -3.632,-2.69l-3.52,-7.039c0,-0 -0,-0.001 -0.001,-0.002c-0.846,-1.701 -1.788,-2.271 -2.502,-2.271c-0.713,0 -1.662,0.572 -2.518,2.273l-0,0.001l-0.001,0.002l-3.518,7.036c-0.694,1.416 -2.08,2.43 -3.609,2.69c-0.001,-0 -0.002,-0 -0.003,-0l-6.386,1.061c-1.805,0.301 -2.61,1.02 -2.829,1.708c-0.22,0.689 0.019,1.744 1.312,3.036l4.964,4.964c1.191,1.191 1.697,2.986 1.33,4.62c-0,0.002 -0.001,0.005 -0.002,0.007l-0.228,0.99c-0.113,0.487 -0.55,0.834 -1.049,0.834c-0.082,0 -0.163,-0.009 -0.243,-0.027c-0.486,-0.113 -0.833,-0.55 -0.833,-1.049c-0,-0.081 0.009,-0.163 0.027,-0.242l0.228,-0.984c0.154,-0.688 -0.261,-2.137 -0.752,-2.627l-4.964,-4.965c-1.631,-1.63 -2.382,-3.518 -1.841,-5.212c0.541,-1.693 2.248,-2.796 4.527,-3.176c-0,0 0,0 0,-0l6.382,-1.06c0.592,-0.101 1.769,-0.968 2.037,-1.515c0.001,-0.002 0.002,-0.005 0.003,-0.008l3.523,-7.046c0,-0.001 0.001,-0.001 0.001,-0.002c1.066,-2.121 2.639,-3.461 4.442,-3.461l0,0Zm-20.535,3.339c0.134,0 0.253,0.084 0.297,0.211l0.26,0.798c0.163,0.492 0.549,0.878 1.041,1.042l0.799,0.259l0.017,0.004c0.126,0.045 0.21,0.164 0.21,0.298c0,0.134 -0.084,0.253 -0.21,0.297l-0.799,0.26c-0.492,0.163 -0.878,0.549 -1.041,1.041l-0.26,0.799c-0.044,0.126 -0.163,0.21 -0.297,0.21c-0.134,0 -0.253,-0.084 -0.298,-0.21l-0.259,-0.799c-0.162,-0.493 -0.549,-0.881 -1.042,-1.045l-0.798,-0.26c-0.126,-0.044 -0.211,-0.163 -0.211,-0.297c0,-0.134 0.085,-0.253 0.211,-0.298l0.798,-0.259c0.486,-0.168 0.866,-0.553 1.026,-1.042l0.26,-0.798c0.044,-0.127 0.163,-0.211 0.297,-0.211l-0.001,0Zm7.806,1.676c0.124,0 0.235,0.078 0.276,0.195l0.241,0.742c0.152,0.457 0.51,0.815 0.967,0.967l0.741,0.241l0.015,0.004c0.117,0.041 0.195,0.152 0.195,0.276c0,0.124 -0.078,0.234 -0.195,0.276l-0.742,0.241c-0.456,0.151 -0.815,0.51 -0.967,0.967l-0.241,0.741c-0.041,0.117 -0.152,0.195 -0.276,0.195c-0.124,0 -0.235,-0.078 -0.276,-0.195l-0.241,-0.741c-0.151,-0.459 -0.509,-0.818 -0.967,-0.971l-0.741,-0.241c-0.117,-0.041 -0.196,-0.152 -0.196,-0.276c0,-0.124 0.078,-0.235 0.196,-0.276l0.741,-0.241c0.451,-0.156 0.804,-0.514 0.952,-0.967l0.241,-0.742c0.042,-0.117 0.152,-0.195 0.276,-0.195l0.001,0Zm31.034,4.853c2.466,0.272 4.509,0.8 6.09,1.618c1.581,0.817 2.746,1.982 3.145,3.471c0.352,1.317 0.057,2.727 -0.681,4.064c-0.571,1.033 -1.408,2.053 -2.487,3.069l2.357,0.99c0.544,0.228 0.804,0.864 0.576,1.408c-0.168,0.399 -0.56,0.66 -0.992,0.66c-0.143,0 -0.285,-0.028 -0.417,-0.084l-4.087,-1.716c-0.493,-0.206 -0.76,-0.75 -0.624,-1.266l1.377,-5.233c0.124,-0.472 0.553,-0.802 1.04,-0.802c0.093,-0 0.185,0.011 0.274,0.035c0.571,0.15 0.917,0.744 0.767,1.314l-0.458,1.743c0.323,-0.403 0.587,-0.792 0.79,-1.159c0.554,-1.002 0.665,-1.799 0.486,-2.466c-0.202,-0.755 -0.818,-1.477 -2.054,-2.116c-1.237,-0.639 -3.05,-1.138 -5.337,-1.391c-0.543,-0.06 -0.959,-0.523 -0.959,-1.069c0,-0.04 0.003,-0.079 0.007,-0.119c0.065,-0.586 0.601,-1.016 1.187,-0.951Zm-44.551,9.907c0.094,-0.002 0.188,0.008 0.279,0.031l4.355,1.074c0.481,0.118 0.821,0.554 0.819,1.048l-0.02,5.417c-0.002,0.589 -0.487,1.072 -1.076,1.072c-0.001,0 -0.003,0 -0.004,0c-0.589,-0.002 -1.072,-0.487 -1.072,-1.076c-0,-0.001 -0,-0.002 -0,-0.004l0.011,-3.124c-0.83,0.795 -1.46,1.558 -1.881,2.255c-0.661,1.097 -0.805,1.97 -0.613,2.686c0.231,0.861 0.982,1.651 2.442,2.31c1.459,0.658 3.558,1.119 6.093,1.3c5.07,0.363 11.879,-0.366 19.098,-2.3c5.775,-1.547 11.211,-3.718 15.409,-6.137c0.164,-0.094 0.349,-0.144 0.538,-0.144c0.384,0 0.74,0.206 0.932,0.539c0.295,0.512 0.116,1.175 -0.395,1.47c-4.41,2.541 -9.993,4.761 -15.927,6.351c-7.414,1.986 -14.401,2.755 -19.809,2.368c-2.704,-0.193 -5.015,-0.669 -6.825,-1.486c-1.809,-0.817 -3.187,-2.042 -3.635,-3.713c-0.379,-1.415 -0.011,-2.927 0.849,-4.355c0.589,-0.977 1.415,-1.943 2.455,-2.905l-2.26,-0.557c-0.479,-0.118 -0.819,-0.551 -0.819,-1.045c0,-0.087 0.011,-0.173 0.032,-0.257c0.116,-0.472 0.538,-0.809 1.023,-0.818l0.001,-0Zm48.591,7.975c0.139,-0 0.263,0.088 0.309,0.219l0.27,0.831c0.171,0.513 0.573,0.915 1.085,1.085l0.831,0.27l0.017,0.005c0.132,0.046 0.22,0.17 0.22,0.309c-0,0.14 -0.088,0.264 -0.22,0.31l-0.831,0.27c-0.512,0.17 -0.914,0.573 -1.085,1.085l-0.27,0.832c-0.046,0.131 -0.17,0.219 -0.309,0.219c-0.14,-0 -0.264,-0.088 -0.31,-0.219l-0.27,-0.832c-0.169,-0.514 -0.572,-0.918 -1.085,-1.089l-0.831,-0.27c-0.132,-0.046 -0.219,-0.17 -0.219,-0.31c-0,-0.139 0.087,-0.263 0.219,-0.309l0.831,-0.271c0.506,-0.174 0.901,-0.576 1.068,-1.084l0.27,-0.832c0.047,-0.131 0.171,-0.219 0.31,-0.219l-0,-0Zm-9.281,2.973c0.429,0.072 0.774,0.396 0.871,0.819l0.849,3.668c-0,0.001 0,0.001 0,0.001c0.304,1.319 0.375,2.485 0.187,3.504c-0.189,1.02 -0.671,1.919 -1.45,2.487c-0.779,0.568 -1.782,0.753 -2.812,0.622c-1.029,-0.13 -2.12,-0.552 -3.286,-1.241c-0.001,0 -0.001,0 -0.001,0l-5.986,-3.543c0,-0 0,-0 0,-0c-0.635,-0.376 -2.208,-0.383 -2.873,0.003l-5.979,3.54l0,-0.001c-1.957,1.162 -3.761,1.612 -5.288,1.044c-1.526,-0.569 -2.36,-2.203 -2.363,-4.1c0,-0 0,-0.001 0,-0.001c0,-0.59 0.485,-1.076 1.075,-1.076c0.59,-0.001 1.076,0.484 1.077,1.074c0.002,1.366 0.379,1.869 0.962,2.086c0.583,0.217 1.791,0.101 3.439,-0.878c0.001,0 0.001,0 0.001,0l5.986,-3.543c0.002,-0.002 0.004,-0.003 0.006,-0.005c1.537,-0.894 3.526,-0.9 5.053,0.005l0,-0l5.984,3.542c0.986,0.582 1.832,0.879 2.463,0.959c0.63,0.08 1.009,-0.034 1.273,-0.226c0.265,-0.193 0.487,-0.517 0.602,-1.139c0.115,-0.622 0.089,-1.516 -0.168,-2.629l-0.848,-3.668c-0.019,-0.079 -0.028,-0.161 -0.028,-0.242c-0,-0.5 0.347,-0.936 0.834,-1.049c0.137,-0.032 0.28,-0.036 0.419,-0.013l0.001,0Zm5.97,5.313c0.106,-0 0.201,0.067 0.236,0.167l0.206,0.634c0.13,0.39 0.436,0.697 0.827,0.827l0.634,0.206l0.011,0.003c0.1,0.035 0.167,0.13 0.167,0.236c0,0.106 -0.067,0.201 -0.167,0.236l-0.634,0.206c-0.39,0.13 -0.697,0.436 -0.827,0.827l-0.206,0.634c-0.035,0.1 -0.13,0.167 -0.236,0.167c-0.106,-0 -0.201,-0.067 -0.236,-0.167l-0.206,-0.634c-0.129,-0.392 -0.436,-0.7 -0.827,-0.83l-0.634,-0.206c-0.1,-0.035 -0.167,-0.13 -0.167,-0.236c0,-0.106 0.067,-0.201 0.167,-0.236l0.634,-0.206c0.386,-0.133 0.687,-0.439 0.814,-0.827l0.206,-0.634c0.036,-0.1 0.13,-0.167 0.236,-0.167l0.002,-0Zm-38.079,1.71c0.087,0 0.164,0.055 0.193,0.137l0.169,0.518c0.106,0.32 0.357,0.571 0.676,0.677l0.519,0.168l0.011,0.003c0.082,0.028 0.137,0.106 0.137,0.193c-0,0.087 -0.055,0.164 -0.137,0.193l-0.519,0.168c-0.319,0.106 -0.57,0.357 -0.676,0.677l-0.168,0.518c-0.029,0.082 -0.107,0.136 -0.193,0.136c-0.087,0 -0.165,-0.054 -0.193,-0.136l-0.169,-0.518c-0.105,-0.321 -0.356,-0.573 -0.676,-0.679l-0.518,-0.169c-0.082,-0.029 -0.137,-0.106 -0.137,-0.193c0,-0.087 0.055,-0.164 0.137,-0.193l0.518,-0.168c0.316,-0.109 0.562,-0.36 0.666,-0.677l0.168,-0.518c0.029,-0.082 0.107,-0.137 0.193,-0.137l-0.001,0Zm18.502,1.721c0.16,0 0.303,0.101 0.356,0.252l0.31,0.955c0.196,0.589 0.658,1.05 1.246,1.246l0.955,0.31l0.02,0.005c0.151,0.053 0.252,0.196 0.252,0.356c-0,0.16 -0.101,0.302 -0.252,0.355l-0.955,0.311c-0.588,0.195 -1.05,0.657 -1.246,1.246l-0.31,0.955c-0.053,0.15 -0.196,0.251 -0.356,0.251c-0.16,0 -0.302,-0.101 -0.356,-0.251l-0.31,-0.955c-0.194,-0.591 -0.656,-1.054 -1.246,-1.251l-0.955,-0.31c-0.151,-0.054 -0.252,-0.196 -0.252,-0.356c0,-0.16 0.101,-0.303 0.252,-0.356l0.955,-0.31c0.581,-0.201 1.035,-0.662 1.227,-1.246l0.31,-0.955c0.054,-0.151 0.196,-0.252 0.356,-0.252l-0.001,0Zm7.869,4.312c0.109,-0 0.206,0.068 0.242,0.171l0.212,0.65c0.133,0.401 0.447,0.715 0.848,0.848l0.65,0.212l0.014,0.003c0.103,0.036 0.172,0.133 0.172,0.242c-0,0.109 -0.069,0.206 -0.172,0.242l-0.65,0.212c-0.401,0.133 -0.715,0.447 -0.848,0.848l-0.211,0.65c-0.037,0.103 -0.134,0.171 -0.243,0.171c-0.109,0 -0.205,-0.068 -0.242,-0.171l-0.211,-0.65c-0.132,-0.402 -0.447,-0.718 -0.848,-0.852l-0.651,-0.211c-0.102,-0.036 -0.171,-0.133 -0.171,-0.242c0,-0.109 0.069,-0.206 0.171,-0.242l0.651,-0.212c0.395,-0.136 0.704,-0.45 0.835,-0.848l0.211,-0.65c0.036,-0.103 0.134,-0.171 0.243,-0.171l-0.002,-0Zm-14.428,0.093c0.117,-0 0.221,0.074 0.26,0.184l0.227,0.7c0.144,0.431 0.482,0.769 0.913,0.912l0.699,0.228l0.015,0.003c0.11,0.039 0.184,0.144 0.184,0.261c0,0.117 -0.074,0.221 -0.184,0.26l-0.7,0.228c-0.431,0.143 -0.769,0.481 -0.912,0.912l-0.228,0.7c-0.039,0.11 -0.143,0.184 -0.26,0.184c-0.117,-0 -0.222,-0.074 -0.261,-0.184l-0.227,-0.7c-0.142,-0.432 -0.481,-0.772 -0.913,-0.916l-0.699,-0.227c-0.111,-0.039 -0.184,-0.144 -0.184,-0.261c-0,-0.117 0.073,-0.221 0.184,-0.26l0.699,-0.228c0.426,-0.147 0.759,-0.484 0.899,-0.912l0.227,-0.7c0.039,-0.11 0.144,-0.184 0.261,-0.184l-0,-0Z" style="fill:#7ea7cf;fill-rule:nonzero;"/><path d="M16.444,61.788l0,-5.813c0,-0.353 0.141,-0.693 0.391,-0.942c0.249,-0.25 0.589,-0.391 0.942,-0.391l0.394,0c0.731,0 1.333,0.602 1.333,1.333l0,5.237c0,1.494 0.63,2.088 1.656,2.088c1.224,0 2.052,-0.918 2.052,-2.322l0,-5.003c0,-0.353 0.141,-0.693 0.391,-0.942c0.249,-0.25 0.589,-0.391 0.942,-0.391l0.394,0c0.731,0 1.333,0.602 1.333,1.333l0,8.458c0,0.353 -0.141,0.693 -0.391,0.942c-0.249,0.25 -0.589,0.391 -0.942,0.391l-1.007,0c-0.395,0 -0.72,-0.325 -0.72,-0.72c-0.738,0.684 -1.746,0.954 -3.006,0.954c-2.376,0 -3.762,-1.476 -3.762,-4.212Zm35.961,2.879c0,0.731 -0.602,1.333 -1.333,1.333l-0.304,-0c-0.731,-0 -1.333,-0.602 -1.333,-1.333l0,-8.548c0,-0.353 0.141,-0.693 0.391,-0.942c0.249,-0.25 0.589,-0.391 0.942,-0.391l0.791,0c0.464,0 0.846,0.382 0.846,0.846c0.211,-0.236 0.516,-0.437 0.906,-0.587c0.854,-0.33 1.662,0.451 1.7,1.37l0.017,0.432c0.023,0.552 -0.409,1.036 -0.94,1.186c-1.242,0.352 -1.683,1.028 -1.683,1.775l0,4.859Zm25.287,-12.221c0,-0.732 0.602,-1.334 1.334,-1.334l0.482,0c0.732,0 1.334,0.602 1.334,1.334l-0,0.556c-0,0.731 -0.602,1.333 -1.334,1.333l-0.482,0c-0.732,0 -1.334,-0.602 -1.334,-1.333l0,-0.556Zm0.036,4.482c-0,-0.731 0.601,-1.333 1.333,-1.333l0.412,-0c0.732,-0 1.334,0.602 1.334,1.333l-0,7.738c-0,0.732 -0.602,1.334 -1.334,1.334l-0.412,-0c-0.732,-0 -1.333,-0.602 -1.333,-1.334l-0,-7.738Zm92.543,5.503l0,-11.123c0,-0.353 0.141,-0.693 0.391,-0.942c0.249,-0.25 0.589,-0.391 0.942,-0.391l0.484,0c0.353,0 0.693,0.141 0.943,0.391c0.249,0.249 0.39,0.589 0.39,0.942l0,10.223c0,1.169 0.054,1.596 0.56,2.017c0.141,0.117 0.235,0.342 0.194,0.522l-0.3,1.311c-0.082,0.359 -0.447,0.646 -0.813,0.617c-1.083,-0.085 -1.729,-0.32 -2.107,-0.759c-0.504,-0.594 -0.684,-1.152 -0.684,-2.808Zm26.295,-9.985c-0,-0.354 0.14,-0.693 0.39,-0.943c0.25,-0.25 0.59,-0.391 0.943,-0.391l0.483,0c0.354,0 0.693,0.141 0.943,0.391c0.25,0.25 0.39,0.589 0.39,0.943l0,0.556c0,0.353 -0.14,0.693 -0.39,0.943c-0.25,0.249 -0.589,0.39 -0.943,0.39l-0.483,0c-0.353,0 -0.693,-0.141 -0.943,-0.39c-0.25,-0.25 -0.39,-0.59 -0.39,-0.943l-0,-0.556Zm0.037,4.482c-0,-0.353 0.14,-0.693 0.39,-0.943c0.25,-0.25 0.589,-0.39 0.943,-0.39l0.411,-0c0.353,-0 0.693,0.14 0.943,0.39c0.25,0.25 0.39,0.59 0.39,0.943l0,7.738c0,0.354 -0.14,0.693 -0.39,0.943c-0.25,0.25 -0.59,0.391 -0.943,0.391l-0.411,-0c-0.354,-0 -0.693,-0.141 -0.943,-0.391c-0.25,-0.25 -0.39,-0.589 -0.39,-0.943l-0,-7.738Zm26.834,0.981c0,-0.088 -0.035,-0.173 -0.098,-0.235c-0.062,-0.063 -0.147,-0.098 -0.235,-0.098c-0.203,0 -0.398,-0.081 -0.541,-0.224c-0.143,-0.143 -0.224,-0.338 -0.224,-0.541l0,-1.17c0,-0.203 0.081,-0.398 0.224,-0.541c0.143,-0.143 0.338,-0.224 0.541,-0.224c0.088,-0 0.173,-0.035 0.235,-0.098c0.063,-0.062 0.098,-0.147 0.098,-0.235l0,-0.369c0,-1.564 0.699,-2.895 2.65,-3.374c0.892,-0.219 1.703,0.554 1.765,1.473l0.017,0.255c0.038,0.551 -0.42,0.937 -0.906,1.19c-0.281,0.146 -0.376,0.367 -0.376,0.636l0,0.189c0,0.088 0.035,0.173 0.098,0.235c0.062,0.063 0.147,0.098 0.235,0.098l0.252,0c0.203,0 0.398,0.081 0.541,0.224c0.143,0.143 0.224,0.338 0.224,0.541l0,1.17c0,0.203 -0.081,0.398 -0.224,0.541c-0.143,0.143 -0.338,0.224 -0.541,0.224l-0.252,0c-0.088,0 -0.173,0.035 -0.235,0.098c-0.063,0.062 -0.098,0.147 -0.098,0.235l0,6.758c0,0.353 -0.141,0.693 -0.391,0.942c-0.249,0.25 -0.589,0.391 -0.942,0.391l-0.484,0c-0.353,0 -0.693,-0.141 -0.942,-0.391c-0.25,-0.249 -0.391,-0.589 -0.391,-0.942l0,-6.758Zm34.54,4.817c0.431,-0.341 1.034,-0.486 1.489,-0.173l0.053,0.036c0.758,0.522 0.978,1.602 0.275,2.192c-0.952,0.798 -2.189,1.219 -3.96,1.219c-3.348,0 -5.814,-1.944 -5.814,-5.85c0,-3.726 2.124,-5.796 5.724,-5.796c3.618,0 5.256,2.502 5.256,5.67l0,0.035c0,0.353 -0.141,0.693 -0.391,0.942c-0.249,0.25 -0.589,0.391 -0.942,0.391l-6.353,0l0,0.072c0.126,1.116 1.26,1.926 2.61,1.926c0.84,0 1.528,-0.248 2.053,-0.664Zm-4.573,-3.944l4.68,0l0,-0.126c0,-0.738 -0.648,-1.692 -2.232,-1.692c-1.674,0 -2.448,0.99 -2.448,1.71l0,0.108Z" fill="currentColor"/></g></svg>