<svg
  width="261"
  height="66"
  viewBox="0 0 261 66"
  fill="none"
  xmlns="http://www.w3.org/2000/svg"
  xmlns:xlink="http://www.w3.org/1999/xlink">
  <symbol id="logo-symbol-wordmark">
    <path
      fill="currentColor"
      d="M 89.703186,0 C 87.249834,0 85.526907,1.3994986 85.526907,3.9287461 V 46.011153 c 0,2.52925 1.722927,3.928747 4.176279,3.928747 2.453355,0 4.174814,-1.399497 4.174814,-3.928747 V 3.9287461 C 93.878,1.3994986 92.156541,0 89.703186,0 Z M 23.451084,0.91553551 c -10.231005,0 -17.8520912,3.01343529 -17.8520912,11.62363849 0,8.610204 8.1430752,11.623639 17.8520912,11.623639 9.709013,0 17.85209,-3.013435 17.85209,-11.623639 0,-8.6102032 -7.621087,-11.62363849 -17.85209,-11.62363849 z M 56.870105,2.3672086 c -2.035763,0 -3.550788,1.1851648 -3.550788,3.4453432 0,2.2063646 1.515025,3.3896786 3.550788,3.3896786 h 12.004421 c 0.52199,0 0.730961,0.268999 0.730961,0.8071356 v 5.327685 c 0,0.645765 -0.208971,0.807136 -0.730961,0.807136 H 58.696769 c -3.392934,0 -5.377452,1.721389 -5.377452,5.219284 v 11.623641 c 0,3.497893 1.775045,5.220747 5.16798,5.220747 h 4.593761 c 5.585291,0 10.231556,-0.32366 15.190463,-1.130867 1.983562,-0.376696 3.288693,-1.883517 2.8711,-4.08988 -0.365392,-2.206367 -1.931974,-2.851614 -3.915537,-2.582544 -4.489114,0.645763 -8.142969,0.968272 -13.415069,0.968272 h -1.618657 c -0.52199,0 -0.730958,-0.214811 -0.730958,-0.752939 v -6.996155 c 0,-0.538138 0.208971,-0.752937 0.730958,-0.752937 H 72.58059 c 3.392935,0 5.116709,-1.721389 5.116709,-5.219285 V 7.5879583 c 0,-3.4978951 -1.723774,-5.2207497 -5.116709,-5.2207497 z M 23.451084,8.0186262 c 5.011104,0 9.709004,0.9688393 9.709004,4.5205478 0,3.497896 -4.6979,4.519083 -9.709004,4.519083 -5.011105,0 -9.709006,-1.021187 -9.709006,-4.519083 0,-3.5517085 4.697901,-4.5205478 9.709006,-4.5205478 z M 3.8763326,27.552492 c -2.3489552,0 -3.7573326,1.237594 -3.7573326,3.659211 0,2.42162 1.4083774,3.659212 3.7573326,3.659212 H 19.274805 v 11.140238 c 0,2.26018 1.51413,3.928747 4.176279,3.928747 2.66215,0 4.176279,-1.668567 4.176279,-3.928747 V 34.870915 h 15.398472 c 2.348955,0 3.758798,-1.237592 3.758798,-3.659212 0,-2.421617 -1.409843,-3.659211 -3.758798,-3.659211 z" />
    <path
      fill="currentColor"
      d="m 78.038678,54.105 c -0.723892,0 -1.300788,0.594075 -1.300788,1.340384 0,0.746313 0.576896,1.340385 1.300788,1.340385 0.723895,0 1.299322,-0.594072 1.299322,-1.340385 0,-0.746309 -0.575427,-1.340384 -1.299322,-1.340384 z m -24.849713,4.066568 c -0.782989,0 -1.432712,0.48742 -1.595221,1.188033 -0.07387,-0.746306 -0.457647,-1.066447 -1.078128,-1.066447 -0.694346,0 -1.09278,0.457541 -1.09278,1.173386 v 5.238489 c 0,0.715844 0.427724,1.157273 1.122074,1.157273 0.694346,0 1.10743,-0.441429 1.10743,-1.157273 v -3.366344 c 0,-0.731078 0.340459,-1.248096 0.960937,-1.248096 0.339791,0 0.634711,0.0762 0.930182,0.15234 0.561384,0.137089 1.049889,-0.06109 1.271489,-0.609396 0.206816,-0.548311 -0.04462,-1.005571 -0.487794,-1.218802 -0.384108,-0.182757 -0.724539,-0.243165 -1.138189,-0.243165 z m 24.849713,0 c -0.694347,0 -1.138189,0.456071 -1.138189,1.171921 v 5.36154 c 0,0.715844 0.443842,1.157273 1.138189,1.157273 0.694349,0 1.122074,-0.441429 1.122074,-1.157273 v -5.36154 c 0,-0.71585 -0.427725,-1.171921 -1.122074,-1.171921 z m -56.937251,0.121583 c -0.694346,0 -1.107427,0.441426 -1.107427,1.15727 v 3.640281 C 19.994,64.827014 21.028474,66 22.727409,66 c 0.871629,0 1.698071,-0.441426 2.00831,-1.157273 0.04433,0.533076 0.442876,1.019572 1.078131,1.019572 0.664798,0 1.094243,-0.380504 1.094243,-1.157273 v -5.254605 c 0,-0.715844 -0.429195,-1.15727 -1.123542,-1.15727 -0.694349,0 -1.107424,0.441426 -1.107424,1.15727 v 3.380997 c 0,0.71585 -0.546508,1.218796 -1.226083,1.218796 -0.723895,0 -1.226078,-0.548058 -1.226078,-1.233446 v -3.366347 c 0,-0.715844 -0.429189,-1.15727 -1.123539,-1.15727 z" />
    <path
      fill="#7ea7cf"
      d="M 133.5099,0 A 32.999966,32.999965 0 0 0 100.51,32.999894 32.999966,32.999965 0 0 0 133.5099,66 32.999966,32.999965 0 0 0 166.51,32.999894 32.999966,32.999965 0 0 0 133.5099,0 Z m -9.7615,7.462403 c 0.19162,0 0.36247,0.1208523 0.42625,0.3015984 l 0.37199,1.1443917 c 0.23442,0.7053787 0.78791,1.2587969 1.49329,1.4932789 l 1.14417,0.372007 0.0227,0.0057 c 0.18085,0.06376 0.30161,0.234567 0.30161,0.426231 0,0.191664 -0.12076,0.362467 -0.30161,0.426231 l -1.14417,0.3718 c -0.70538,0.234482 -1.25901,0.788111 -1.49349,1.493489 l -0.37185,1.144182 c -0.0638,0.180746 -0.23443,0.301598 -0.42625,0.301598 -0.19162,0 -0.36247,-0.120852 -0.42622,-0.301598 L 122.97281,13.4971 c -0.23301,-0.707563 -0.78661,-1.263506 -1.49329,-1.499163 l -1.14418,-0.371796 c -0.18085,-0.06376 -0.3018,-0.234567 -0.3018,-0.426231 0,-0.191665 0.12104,-0.362467 0.3018,-0.426231 l 1.14418,-0.372007 c 0.69664,-0.240539 1.24061,-0.7930125 1.47036,-1.4932789 l 0.37202,-1.1443917 c 0.0638,-0.1807455 0.23442,-0.3015984 0.42622,-0.3015984 z m 21.81997,1.8991233 c 0.23159,0 0.43807,0.1461741 0.51514,0.3646502 l 0.44955,1.3831485 c 0.28346,0.852622 0.95235,1.521536 1.80496,1.804966 l 1.38316,0.44956 0.0283,0.0069 c 0.21855,0.07707 0.36465,0.283459 0.36465,0.515134 0,0.231673 -0.14627,0.438273 -0.36465,0.515344 l -1.38316,0.44955 c -0.85264,0.283428 -1.52176,0.952343 -1.80519,1.804966 l -0.44935,1.383148 c -0.0771,0.218474 -0.28366,0.364651 -0.51534,0.364651 -0.23159,0 -0.43804,-0.146174 -0.51511,-0.364651 L 144.6318,16.65579 c -0.28148,-0.855263 -0.95099,-1.527054 -1.80518,-1.811902 l -1.38314,-0.44956 c -0.21855,-0.07708 -0.36445,-0.283461 -0.36445,-0.515134 0,-0.231673 0.14598,-0.438268 0.36445,-0.515344 l 1.38314,-0.44956 c 0.84206,-0.290752 1.49972,-0.958524 1.77743,-1.804966 l 0.44958,-1.3831489 c 0.0771,-0.2184775 0.28366,-0.36465 0.51534,-0.36465 z m -12.06519,2.7038757 c 1.80289,0 3.37286,1.341592 4.42834,3.46239 l 0.001,0.0019 3.52231,7.04458 a 1.0761935,1.0761934 0 0 1 0.003,0.0078 c 0.26759,0.546214 1.43464,1.410537 2.05254,1.513877 l 6.38589,1.060951 a 1.0761935,1.0761934 0 0 1 8.2e-4,2.1e-4 c 2.27812,0.379689 3.9888,1.479872 4.53342,3.174245 0.54434,1.69343 -0.20749,3.583864 -1.84742,5.213972 l -0.002,0.0027 -0.55128,0.551284 a 1.0760858,1.0760858 0 0 1 -1.52187,0 1.0760858,1.0760858 0 0 1 0,-1.522074 l 0.55361,-0.553595 a 1.0761935,1.0761934 0 0 1 0.003,-0.0025 c 1.30081,-1.291967 1.53887,-2.343306 1.31779,-3.031115 -0.2211,-0.687724 -1.03257,-1.409172 -2.83776,-1.710172 l -6.38589,-1.060951 a 1.0761935,1.0761934 0 0 1 -4.3e-4,0 c -1.54423,-0.257386 -2.93893,-1.274517 -3.6322,-2.690006 l -3.51964,-7.038456 a 1.0761935,1.0761934 0 0 1 -10e-4,-0.0023 c -0.84628,-1.701473 -1.78849,-2.270709 -2.50234,-2.270709 -0.7135,0 -1.66252,0.572013 -2.51807,2.273022 l -2e-4,6.1e-4 -8.8e-4,0.0015 -3.51827,7.036594 c -0.6933,1.415489 -2.07927,2.429626 -3.60891,2.689373 a 1.0761935,1.0761934 0 0 1 -0.003,4.06e-4 l -6.38586,1.060999 c -1.80493,0.300952 -2.60952,1.019866 -2.82935,1.708287 -0.21997,0.688496 0.0199,1.743562 1.31233,3.035529 l 4.96449,4.964497 c 1.19103,1.191033 1.69622,2.985576 1.32998,4.619599 a 1.0761935,1.0761934 0 0 1 -0.002,0.0071 l -0.22875,0.990547 a 1.0760858,1.0760858 0 0 1 -1.2911,0.806083 1.0760858,1.0760858 0 0 1 -0.806,-1.290884 l 0.22762,-0.983611 c 0.1542,-0.688113 -0.26136,-2.136642 -0.75181,-2.627161 l -4.96471,-4.964505 c -1.63071,-1.630724 -2.38133,-3.518394 -1.84048,-5.212079 0.54082,-1.693687 2.24807,-2.796401 4.52648,-3.176136 a 1.0761935,1.0761934 0 0 1 6.5e-4,-2.1e-4 l 6.38189,-1.060322 c 0.59233,-0.100573 1.76899,-0.968148 2.03658,-1.514507 a 1.0761935,1.0761934 0 0 1 0.003,-0.0078 l 3.52335,-7.046481 a 1.0761935,1.0761934 0 0 1 8.5e-4,-0.0019 c 1.06591,-2.120732 2.63874,-3.460499 4.44223,-3.460499 z m -20.53539,3.338808 c 0.13379,0 0.25285,0.08428 0.29741,0.210385 l 0.25937,0.798446 c 0.16356,0.492129 0.54969,0.878234 1.04182,1.041828 l 0.79846,0.259566 0.017,0.004 c 0.12614,0.04449 0.21033,0.163672 0.21033,0.297394 0,0.133721 -0.0842,0.25291 -0.21033,0.297395 l -0.79847,0.259339 c -0.49212,0.163593 -0.87823,0.549699 -1.04181,1.041827 l -0.25937,0.798448 c -0.0445,0.126102 -0.16356,0.210384 -0.29741,0.210384 -0.1338,0 -0.25285,-0.08428 -0.29739,-0.210384 l -0.25937,-0.798446 c -0.16241,-0.493653 -0.5488,-0.881408 -1.04183,-1.045821 l -0.79844,-0.259353 c -0.12614,-0.04449 -0.21033,-0.163675 -0.21033,-0.297394 0,-0.133719 0.0842,-0.252907 0.21033,-0.297394 l 0.79844,-0.259566 c 0.48603,-0.16782 0.86556,-0.553265 1.02586,-1.041827 l 0.25965,-0.798447 c 0.0445,-0.126102 0.16356,-0.210384 0.29741,-0.210384 z m 7.80605,1.675921 c 0.12415,0 0.23499,0.07818 0.27609,0.19525 l 0.24095,0.741279 c 0.15193,0.456888 0.51032,0.815336 0.96721,0.967217 l 0.74128,0.240857 0.0142,0.0038 c 0.11707,0.0413 0.19559,0.152022 0.19559,0.276165 0,0.124143 -0.0782,0.234658 -0.19559,0.275958 l -0.74109,0.24086 c -0.45689,0.151895 -0.81553,0.510343 -0.96741,0.96723 l -0.24095,0.741279 c -0.0414,0.117074 -0.15193,0.195461 -0.27581,0.195461 -0.12415,0 -0.23499,-0.07839 -0.27609,-0.195461 l -0.24095,-0.741278 c -0.1508,-0.458302 -0.5095,-0.818151 -0.96721,-0.97079 l -0.74128,-0.240857 c -0.11708,-0.0413 -0.1956,-0.152022 -0.1956,-0.276166 0,-0.124146 0.0782,-0.234864 0.1956,-0.276168 l 0.74128,-0.240857 c 0.45122,-0.155803 0.80346,-0.513639 0.95227,-0.967216 l 0.24095,-0.741279 c 0.0414,-0.117074 0.15194,-0.195251 0.27609,-0.195251 z m 31.03455,4.852894 c 2.46609,0.27216 4.50848,0.800404 6.08979,1.617912 1.58127,0.817507 2.74541,1.981789 3.14438,3.470798 0.35292,1.317132 0.0578,2.727631 -0.68096,4.064325 -0.57099,1.032979 -1.408,2.052901 -2.48636,3.069366 l 2.3567,0.989495 a 1.0760858,1.0760858 0 0 1 0.57586,1.408578 1.0760858,1.0760858 0 0 1 -1.40879,0.575666 l -4.08745,-1.715854 a 1.0761935,1.0761934 0 0 1 -0.62399,-1.266083 l 1.37724,-5.233516 a 1.0760858,1.0760858 0 0 1 1.31465,-0.766711 1.0760858,1.0760858 0 0 1 0.76672,1.314421 l -0.45862,1.742755 c 0.32295,-0.403336 0.58748,-0.791901 0.79067,-1.159526 0.55372,-1.001702 0.66458,-1.798403 0.48572,-2.46596 -0.2024,-0.754888 -0.81791,-1.476873 -2.05422,-2.11602 -1.2363,-0.639151 -3.04928,-1.138014 -5.33715,-1.390505 a 1.0760858,1.0760858 0 0 1 -0.95165,-1.187688 1.0760858,1.0760858 0 0 1 1.18746,-0.951453 z m -44.55142,9.906504 a 1.0760858,1.0760858 0 0 1 0.27921,0.0311 l 4.35521,1.074192 a 1.0761935,1.0761934 0 0 1 0.81842,1.048555 l -0.0199,5.416577 a 1.0760858,1.0760858 0 0 1 -1.07988,1.072526 1.0760858,1.0760858 0 0 1 -1.07229,-1.08008 l 0.0113,-3.124432 c -0.83033,0.794662 -1.46044,1.557675 -1.88085,2.254947 -0.66158,1.097255 -0.80515,1.969617 -0.61308,2.686428 0.23046,0.860307 0.98212,1.650405 2.4416,2.309173 1.45944,0.658766 3.55779,1.11943 6.0929,1.300763 5.07022,0.362662 11.87929,-0.365888 19.098,-2.300134 5.77514,-1.547442 11.21168,-3.71846 15.40988,-6.137054 a 1.0760858,1.0760858 0 0 1 1.46976,0.395127 1.0760858,1.0760858 0 0 1 -0.39535,1.469529 c -4.4104,2.54084 -9.99332,4.761204 -15.92734,6.35122 -7.41311,1.986341 -14.40088,2.754819 -19.80859,2.368018 -2.70385,-0.193408 -5.01483,-0.669056 -6.82452,-1.485922 -1.8097,-0.816863 -3.18719,-2.041733 -3.63515,-3.713548 -0.37891,-1.414105 -0.0113,-2.92667 0.84889,-4.354997 0.58859,-0.976189 1.41514,-1.942506 2.45441,-2.904171 l -2.2597,-0.557376 a 1.0760858,1.0760858 0 0 1 -0.78732,-1.302444 1.0760858,1.0760858 0 0 1 1.02333,-0.817993 z m 48.59054,7.975438 c 0.13918,0 0.26334,0.0879 0.30957,0.219203 l 0.27014,0.831234 c 0.17036,0.512442 0.57229,0.91457 1.08471,1.084913 l 0.83145,0.270085 0.017,0.0043 c 0.13125,0.04632 0.21912,0.17056 0.21912,0.309795 0,0.139238 -0.0876,0.263254 -0.21912,0.309583 l -0.83123,0.270085 c -0.51245,0.170334 -0.91457,0.572471 -1.08493,1.08491 l -0.27014,0.831444 c -0.0462,0.131301 -0.17037,0.219005 -0.30957,0.219005 -0.13919,0 -0.26334,-0.0877 -0.30958,-0.219005 l -0.27014,-0.831444 c -0.16923,-0.514023 -0.57155,-0.917708 -1.08493,-1.088904 l -0.83123,-0.270283 c -0.13125,-0.04632 -0.21912,-0.170362 -0.21912,-0.309589 0,-0.139238 0.0876,-0.26348 0.21912,-0.309793 l 0.83123,-0.270085 c 0.5061,-0.174756 0.90142,-0.57619 1.06832,-1.084912 l 0.27014,-0.831235 c 0.0462,-0.1313 0.17036,-0.219203 0.30957,-0.219203 z m -9.28041,2.973316 a 1.0760858,1.0760858 0 0 1 0.87137,0.819043 l 0.84827,3.668151 a 1.0761935,1.0761934 0 0 1 4e-4,8.13e-4 c 0.30398,1.319012 0.37528,2.484522 0.1868,3.504008 -0.1885,1.019486 -0.67065,1.918619 -1.44998,2.486764 -0.77933,0.568146 -1.78228,0.752488 -2.81168,0.622117 -1.0294,-0.130365 -2.12006,-0.551747 -3.28669,-1.240863 a 1.0761935,1.0761934 0 0 1 -8.5e-4,-2.13e-4 l -5.9855,-3.543282 a 1.0761935,1.0761934 0 0 0 -2e-4,-2.07e-4 c -0.63467,-0.376109 -2.20804,-0.382665 -2.87328,0.0037 l -5.97923,3.539733 8.8e-4,-8.13e-4 c -1.95769,1.161777 -3.76107,1.61174 -5.28798,1.043481 -1.52688,-0.568258 -2.36038,-2.202426 -2.36318,-4.099215 a 1.0760858,1.0760858 0 0 1 1.07484,-1.077767 1.0760858,1.0760858 0 0 1 1.07733,1.074405 c 0.002,1.366234 0.37851,1.868479 0.96177,2.085545 0.58326,0.217077 1.79033,0.101169 3.43905,-0.87726 a 1.0761935,1.0761934 0 0 1 8.5e-4,-4.06e-4 l 5.98572,-3.543304 a 1.0761935,1.0761934 0 0 1 0.006,-0.0043 c 1.537,-0.894243 3.52596,-0.900426 5.05298,0.0043 l 4.3e-4,2.07e-4 5.98402,3.542471 c 0.98538,0.582052 1.83215,0.878777 2.4624,0.958598 0.63026,0.07982 1.00951,-0.03359 1.27367,-0.226148 0.26419,-0.192558 0.48654,-0.516697 0.60151,-1.138717 0.11509,-0.621848 0.0887,-1.515856 -0.16781,-2.628633 l -0.84847,-3.668151 a 1.0760858,1.0760858 0 0 1 0.806,-1.291093 1.0760858,1.0760858 0 0 1 0.4195,-0.01304 z m 5.96977,5.312544 c 0.1063,0 0.20069,0.06698 0.23612,0.167102 l 0.20608,0.633881 c 0.12983,0.390673 0.43634,0.697161 0.82704,0.827027 l 0.63388,0.205966 0.0113,0.0031 c 0.10006,0.03529 0.16696,0.129883 0.16696,0.236013 0,0.106157 -0.0669,0.200919 -0.16696,0.236239 l -0.63388,0.205965 c -0.3907,0.129855 -0.69718,0.436354 -0.82704,0.827028 l -0.20608,0.633674 c -0.0354,0.10012 -0.12982,0.167074 -0.23612,0.167074 -0.10602,0 -0.2007,-0.06698 -0.23613,-0.167074 L 152.106,51.443166 c -0.12898,-0.391881 -0.43585,-0.699874 -0.82723,-0.830392 l -0.63369,-0.205966 c -0.10006,-0.03529 -0.16696,-0.129883 -0.16696,-0.236012 0,-0.106158 0.0669,-0.200722 0.16696,-0.236041 l 0.63369,-0.205966 c 0.38582,-0.133228 0.68717,-0.439186 0.81442,-0.827028 l 0.20608,-0.633883 c 0.0354,-0.10012 0.13011,-0.167102 0.23612,-0.167102 z m -38.07854,1.710598 c 0.0867,0 0.16413,0.05474 0.19304,0.136601 l 0.16866,0.518287 c 0.1063,0.319499 0.35685,0.570342 0.67635,0.676545 l 0.51828,0.16835 0.0113,0.0024 c 0.0819,0.02889 0.13663,0.106328 0.13663,0.193153 0,0.08682 -0.0547,0.164268 -0.13663,0.193153 l -0.51848,0.168349 c -0.3195,0.106215 -0.57014,0.356843 -0.67635,0.676336 l -0.16838,0.518292 c -0.0289,0.08187 -0.1063,0.136602 -0.19304,0.136602 -0.0867,0 -0.16441,-0.05474 -0.19304,-0.136602 l -0.16837,-0.518292 c -0.10545,-0.320485 -0.35626,-0.57212 -0.67635,-0.678858 l -0.51829,-0.168548 c -0.0819,-0.02888 -0.13663,-0.10613 -0.13663,-0.192926 0,-0.08683 0.0547,-0.164268 0.13663,-0.193153 l 0.51829,-0.16835 c 0.31555,-0.108935 0.56197,-0.359365 0.66606,-0.676545 l 0.16837,-0.518286 c 0.0289,-0.08187 0.1063,-0.136602 0.19304,-0.136602 z m 18.50196,1.720896 c 0.15988,0 0.30263,0.10097 0.35583,0.251774 l 0.31023,0.954819 c 0.19559,0.588594 0.65749,1.050452 1.24611,1.246116 l 0.95479,0.310215 0.0198,0.0048 c 0.15081,0.05321 0.25172,0.195676 0.25172,0.355609 0,0.159931 -0.10091,0.302618 -0.25172,0.355828 l -0.95479,0.310212 c -0.58861,0.195647 -1.05046,0.657516 -1.24614,1.246119 l -0.31019,0.954816 c -0.0533,0.150832 -0.19588,0.251774 -0.35584,0.251774 -0.15987,0 -0.3024,-0.100971 -0.3556,-0.251774 l -0.31042,-0.954816 c -0.19446,-0.590392 -0.65645,-1.054276 -1.24612,-1.250921 l -0.95482,-0.310212 c -0.1508,-0.05321 -0.25171,-0.195903 -0.25171,-0.355822 0,-0.159931 0.10063,-0.302406 0.25171,-0.355612 l 0.95482,-0.310218 c 0.58131,-0.200721 1.03527,-0.661785 1.22698,-1.246113 l 0.31042,-0.95482 c 0.0533,-0.150831 0.19559,-0.251773 0.35561,-0.251773 z m 7.86909,4.311281 c 0.10885,0 0.2058,0.06883 0.24208,0.171497 l 0.21118,0.650069 c 0.13323,0.400734 0.44773,0.715042 0.84847,0.848256 l 0.65007,0.211437 0.0142,0.0031 c 0.10262,0.03623 0.17121,0.133228 0.17121,0.242107 0,0.108879 -0.0686,0.206107 -0.17121,0.242334 l -0.65027,0.211238 c -0.40073,0.1332 -0.71504,0.447525 -0.84826,0.848259 l -0.21119,0.650276 c -0.0363,0.102671 -0.13351,0.171298 -0.24236,0.171298 -0.10885,0 -0.20579,-0.0686 -0.24208,-0.171298 l -0.21118,-0.650276 c -0.13238,-0.401851 -0.44699,-0.717613 -0.84846,-0.851497 l -0.6501,-0.211323 c -0.10262,-0.03623 -0.17121,-0.133228 -0.17121,-0.242107 0,-0.108878 0.0686,-0.205908 0.17121,-0.242107 l 0.65007,-0.211436 c 0.39577,-0.136658 0.70492,-0.450431 0.83545,-0.848256 l 0.21118,-0.65007 c 0.0363,-0.102671 0.13352,-0.171496 0.24237,-0.171496 z m -14.4288,0.09332 c 0.11707,0 0.22139,0.07384 0.2605,0.184337 l 0.22734,0.699455 c 0.14344,0.431115 0.48147,0.769263 0.91259,0.912568 l 0.69945,0.227396 0.0142,0.0037 c 0.11055,0.03898 0.18454,0.143263 0.18454,0.26039 0,0.117128 -0.074,0.221641 -0.18454,0.260618 l -0.69925,0.227197 c -0.43112,0.143319 -0.76946,0.481665 -0.91278,0.912778 l -0.22734,0.699248 c -0.0391,0.110466 -0.14344,0.184309 -0.26051,0.184309 -0.11707,0 -0.22138,-0.07384 -0.2605,-0.184309 l -0.22734,-0.699265 c -0.1423,-0.432448 -0.48067,-0.772325 -0.91256,-0.916353 l -0.69947,-0.227197 c -0.11056,-0.03898 -0.18426,-0.14349 -0.18426,-0.260617 0,-0.117156 0.0737,-0.221443 0.18426,-0.260391 l 0.69947,-0.227395 c 0.42577,-0.147005 0.75827,-0.48458 0.8987,-0.912572 l 0.22705,-0.699454 c 0.0391,-0.110466 0.14344,-0.184309 0.26051,-0.184309 z" />
    <path
      fill="currentColor"
      d="m 206.21734,0 c -2.45336,0 -4.17629,1.3994846 -4.17629,3.9287071 V 30.565398 c 0,2.529222 1.72293,3.928708 4.17629,3.928708 2.45336,0 4.17626,-1.399486 4.17626,-3.928708 V 3.9287071 C 210.3936,1.3994846 208.6707,0 206.21734,0 Z m 51.06306,0 c -2.24453,0 -3.65477,1.3452066 -3.65477,3.6591759 v 5.9194276 h -3.23584 V 4.1440387 c 0,-2.3139692 -1.35752,-3.60644158 -3.60208,-3.60644158 -2.24456,0 -3.60205,1.29247238 -3.60205,3.60644158 V 22.816383 c 0,2.313969 1.35749,3.606442 3.60205,3.606442 2.24456,0 3.60208,-1.292473 3.60208,-3.606442 v -6.887688 h 3.23584 v 8.501944 c 0,2.31397 1.41024,3.606442 3.65477,3.606442 2.24456,0 3.6006,-1.292472 3.6006,-3.606442 V 3.6591759 C 260.881,1.3452066 259.52496,0 257.2804,0 Z m -74.60461,0.64599543 c -8.03864,0 -13.36379,4.95054077 -13.36379,13.23777957 0,8.287238 5.32515,13.23778 13.36379,13.23778 7.98646,0 13.36232,-4.950542 13.36232,-13.23778 0,-8.2872388 -5.32367,-13.23777957 -13.36232,-13.23777957 z m 47.04355,0 c -2.34896,0 -3.96828,1.39871287 -3.96828,3.82030847 v 2.2060528 c 0,5.1122573 -2.34797,9.4185043 -6.47168,13.2392443 -1.82699,1.722024 -2.29641,3.981686 -0.67825,5.649896 1.61819,1.668211 3.81031,1.398758 5.68949,-0.0542 2.40115,-1.883463 4.12374,-4.412893 5.42872,-6.565423 1.40936,2.260156 3.39285,4.628068 5.84619,6.350091 1.72256,1.183892 3.70534,1.183813 5.06251,-0.215331 1.51376,-1.560584 1.14928,-3.766356 -0.62549,-5.434566 -4.33251,-4.035992 -6.31642,-7.857455 -6.31642,-12.969713 V 4.4663039 c 0,-2.4215956 -1.61785,-3.82030847 -3.96679,-3.82030847 z M 182.67579,7.2114185 c 3.60174,0 5.21925,2.9592425 5.21925,6.6723565 0,3.713113 -1.61751,6.672356 -5.21925,6.672356 -3.60173,0 -5.22072,-2.959243 -5.22072,-6.672356 0,-3.713114 1.61899,-6.6723565 5.22072,-6.6723565 z m 60.87608,21.4174595 c -10.0744,0 -17.3306,3.497099 -17.3306,10.923325 0,7.426229 7.2562,10.924797 17.3306,10.924797 10.07441,0 17.32913,-3.498568 17.32913,-10.924797 0,-7.426226 -7.25472,-10.923325 -17.32913,-10.923325 z m -62.75548,2.04492 c -2.45336,0 -4.22754,1.506805 -4.22754,4.08984 v 9.848134 c 0,3.390236 1.35609,4.73437 4.74903,4.73437 h 26.83011 c 2.19238,0 3.5508,-1.290622 3.5508,-3.550779 0,-2.260155 -1.35842,-3.552242 -3.5508,-3.552242 h -22.23636 c -0.73077,0 -0.8877,-0.160695 -0.8877,-0.914061 v -6.565422 c 0,-2.583035 -1.77418,-4.08984 -4.22754,-4.08984 z m 62.75548,4.520501 c 5.37648,0 8.87405,1.290551 8.87405,4.357904 0,3.067359 -3.49757,4.359375 -8.87405,4.359375 -5.37648,0 -8.87404,-1.292016 -8.87404,-4.359375 0,-3.067353 3.49756,-4.357904 8.87404,-4.357904 z" />
    <path
      fill="currentColor"
      d="m 203.231,54.105 c -0.72389,0 -1.30078,0.594075 -1.30078,1.340388 0,0.74631 0.57689,1.340382 1.30078,1.340382 0.72389,0 1.29931,-0.594072 1.29931,-1.340382 0,-0.746313 -0.57542,-1.340388 -1.29931,-1.340388 z m -25.54393,0.15234 c -0.69435,0 -1.12207,0.441426 -1.12207,1.157276 v 7.919261 c 0,1.782007 0.69475,2.666123 2.3789,2.666123 0.47275,0 0.84113,-0.06069 1.15137,-0.197753 0.47274,-0.198008 0.6647,-0.685419 0.53174,-1.188036 -0.13295,-0.487386 -0.57546,-0.685252 -1.12207,-0.578637 -0.0739,0.01531 -0.11801,0.03076 -0.19188,0.03076 -0.32501,0 -0.50244,-0.245093 -0.50244,-0.732451 v -7.919261 c 0,-0.71585 -0.42919,-1.157276 -1.12354,-1.157276 z m 53.16939,0 c -1.59552,0 -2.65869,0.928908 -2.65869,2.573834 v 1.552796 h -0.51709 c -0.62048,0 -1.00488,0.35028 -1.00488,0.959513 0,0.609235 0.3844,0.959509 1.00488,0.959509 h 0.51709 v 4.402033 c 0,0.715848 0.42773,1.157274 1.12207,1.157274 0.69435,0 1.12354,-0.441426 1.12354,-1.157274 v -4.402033 h 1.3579 c 0.60571,0 0.99024,-0.350274 0.99024,-0.959509 0,-0.609233 -0.38453,-0.959513 -0.99024,-0.959513 h -1.3579 v -1.385786 c 0,-0.472158 0.251,-0.897987 0.70898,-0.897987 0.31024,0 0.58992,0.105794 0.81152,0.212409 0.36933,0.182785 0.82819,0.122632 1.10889,-0.288581 0.26591,-0.396005 0.16231,-0.929113 -0.14794,-1.18804 -0.5023,-0.441692 -1.25583,-0.578637 -2.06836,-0.578637 z M 203.231,58.171562 c -0.69435,0 -1.13819,0.456073 -1.13819,1.171921 v 5.361542 c 0,0.715848 0.44384,1.157274 1.13819,1.157274 0.69434,0 1.12206,-0.441426 1.12206,-1.157274 v -5.361542 c 0,-0.715848 -0.42772,-1.171921 -1.12206,-1.171921 z m 54.22408,0 c -2.216,0 -3.63428,1.629879 -3.63428,3.868809 0,2.315083 1.34413,3.959629 3.84082,3.959629 1.12277,0 2.12706,-0.273838 2.80664,-0.928749 0.4432,-0.426462 0.65058,-1.02086 0.28125,-1.447321 -0.35456,-0.441692 -0.96037,-0.427057 -1.37403,-0.06154 -0.47274,0.396002 -0.94565,0.670923 -1.71386,0.670923 -0.98981,0 -1.75781,-0.715987 -1.75781,-1.568909 h 4.00342 c 0.81253,0 1.09277,-0.381105 1.09277,-1.218802 0,-1.69062 -1.28461,-3.274054 -3.54492,-3.274054 z m 0,1.721257 c 0.8273,0 1.5498,0.548365 1.5498,1.264212 h -3.10107 c 0,-0.715847 0.72396,-1.264212 1.55127,-1.264212 z" />
  </symbol>
  <use xlink:href="#logo-symbol-wordmark"/>
</svg>